<svg xmlns="http://www.w3.org/2000/svg" fill="none" viewBox="0 0 400 400" id="Empty-Cart--Streamline-Bruxelles.svg" height="400" width="400"><desc>Empty Cart Streamline Illustration: https://streamlinehq.com</desc><g id="Empty-Cart--Shopping-E-commerce-Empty-Cart"><g id="Colour"><path id="Vector" fill="#fff6cc" d="M305.472 117.4428c1.22 2 0.88 7.24 0.28 8.64 -0.794 2.2622 -2.094 4.314 -3.8 6 -4.3 3.8 -13.998 0.78 -12.098 -10 0.52 -3.14 2.5 -7.84 5.5 -8.86 2.44 -0.9 5.598 -2.84 10.118 4.22Z" stroke-width="1"></path><path id="Vector_2" fill="#f6f2ff" d="M242.354 335.662c11.38 -1.5 11.4 -2.46 11.24 2 -0.62 17.56 -1.16 18.24 -3.48 18.68 -4.82 0.9 -5.22 1.2 -6 0.68 -2 -1.38 -1.06 -14.74 -3.36 -18.2 -0.246 -0.364 -0.58 -0.66 -0.974 -0.854 -0.394 -0.196 -0.832 -0.284 -1.272 -0.258 -0.438 0.026 -0.862 0.166 -1.23 0.408 -0.368 0.24 -0.666 0.574 -0.864 0.964 -0.34 0.66 0.14 2 0.18 2.96 0.04 0.96 -0.28 0.8 -1.2 0.96 -0.26 0 -0.36 -0.92 -0.76 -3.66 -0.56 -3.3 -0.72 -2.58 7.72 -3.68Z" stroke-width="1"></path><path id="Vector_3" fill="#f6f2ff" d="M95.3736 346.042c1.82 0.46 1.8398 0.24 1.4198 5.18 -1.04 12 0.28 10.24 -7.62 11.74 -2 0.4 -2.34 -1.56 -2.52 -5.42 0 -1.64 -0.6402 -5.28 -0.6802 -7.46 0 -3.24 -0.96 -6.84 -4 -6 -1.48 0.42 -0.7798 1.82 -1.3198 3.58 0.26 1.36 -0.3198 0.78 -0.7598 1.22 -1.12 1.12 -0.8406 -4.5 -1.4806 -7.06 0 -0.32 0.0004 -0.42 0.3204 -0.42 0.3104 -0.06 0.6294 -0.06 0.94 0 1.5 0.56 3.1 0.68 4.62 1.14 0.56 0.34 3.9002 1.6 11.0802 3.5Z" stroke-width="1"></path><path id="Vector_4" fill="#FFCCCC" d="M349.494 279.882c-0.334 6.948 -2.34 13.71 -5.85 19.714 -3.51 6.004 -8.42 11.07 -14.31 14.766 -15.02 8.48 -40.7 7.5 -54.64 -12.82 -3.6 -5.26 -2.62 -6 -4 -8s-2.74 -10.18 -2.84 -14.36c-0.66 -28.86 32.64 -53.16 63.64 -34.5 2.73 2 5.262 4.256 7.56 6.74 5.92 5.82 10.66 17.98 10.44 28.46Z" stroke-width="1"></path><path id="Vector_5" fill="#b2b2b2" d="M176.8142 335.342c0.38 -0.2 0.2796 0.26 0.1396 0.64 -0.74 2 -0.1598 1.52 -2.7198 2.18 -0.82 -1.48 1.2402 -2.12 2.5802 -2.82Z" stroke-width="1"></path><path id="Vector_6" fill="#f6f2ff" d="m164.2334 318.842 4.1998 -0.56c10.82 1.14 8.6804 0.9 8.4404 5.5 -0.52 10.22 -0.5002 11 -2.5402 11.42 -6.88 1.44 -5.7602 1.64 -6.4002 -5 -0.44 -4.5 -0.3798 -11.26 -3.6598 -10.88l-0.04 -0.48Z" stroke-width="1"></path><path id="Vector_7" fill="#f6f2ff" d="M143.1534 355.102v-0.88c18.16 -2 18.4002 -2.48 18.2002 -1.4 -0.2 1.08 -0.6204 14.18 -0.7604 16.5 -0.54 9.12 -0.7598 6.62 -8.7998 8.84 -5.82 1.56 -1 -24.12 -8.64 -23.06Z" stroke-width="1"></path><path id="Vector_8" fill="#f6f2ff" d="M143.154 355.102c-1.86 0.16 -3.62 1.8 -2.86 5.18 0.0448 0.192 0.0386 0.394 -0.0176 0.582 -0.056 0.19 -0.1604 0.362 -0.3026 0.498 -0.84 1.04 -1.0998 -2.86 -1.2798 -3.68 -0.68 -3.24 -0.58 -3.28 0 -3.28l1.8198 0c2.98 -0.22 2.4202 -0.36 2.6402 0.7Z" stroke-width="1"></path><path id="Vector_9" fill="#e5e5e5" d="M172.8938 336.962c0 1.54 -2.4802 1.68 -4.3602 2 -4.54 -0.7 -4.34 -11.38 -2.34 -11.18 0.68 0 0.18 4.48 1.02 7.44 0.92 3.38 4.3002 1.42 5.6802 1.74Z" stroke-width="1"></path><path id="Vector_10" fill="#e1edf2" d="M273.854 157.0026c12.24 -2.5 9.998 -0.36 15.058 -14.8 1.44 -4.16 1.442 -5.12 2.902 -5.18 3.4 -0.14 5.02 -0.76 4.38 0.82 -5.14 12.72 -37.3 123.6994 -41.5 131.7794 -3.5 6.68 -0.92 8 -30.46 5.76 -18.84 0.82 -58.2806 -2.76 -67.8806 -3.28 0 0 -7.5002 -0.14 -8.1402 -0.2 -61.76 -6 -72.36 0 -72 -12.58 0 -0.2 -10.9602 -63.2994 -8.6402 -69.7794 0.74 -2 -2.3396 -0.76 -2.7196 -1.58 -3.58 -7.42 3.6798 -7.2798 11.3798 -8.8198 16 -3.2 33.5402 -6.6402 40.1602 -8.2802 2.16 -0.54 -0.3004 1.88 1.1196 2.38 0.1546 0.0484 0.321 0.0474 0.475 -0.0028 0.1542 -0.05 0.2888 -0.147 0.3854 -0.2772 1.64 -3.24 -0.8802 -2.44 7.8198 -4 18.26 -3.12 26.4198 -5.84 27.2398 -4.92 1.0958 1.5854 2.4882 2.9436 4.1 4 0.38 0.22 1.2004 0.34 1.3604 0 0.16 -0.34 -4.7404 -4.4 -3.4004 -4.72 1.02 -0.26 27.2004 -5.46 27.4004 -5.52 9.24 -2.22 10.4998 -2 11.2798 -4.28 0.26 -0.74 6.6008 -20.24 6.6408 -20.44 0.3 -1.36 0.24 -0.68 3.82 -1.5 1.68 -0.38 2.52 -1.14 2.46 -0.3 -0.06 0.84 -3.64 9.6 -5.52 17.58 -1.741 7.36 -4.0006 6.56 51.3 4.6 0.32 0 26.54 0 28 0.34 -0.46 0.24 -25.66 6.36 -31.84 5.68 -22.74 0 -20.82 -1.0398 -22.14 4.4202 0 0.32 -0.18 0.4798 -3.28 1.0798 -3.1 0.6 -3.64 0.74 -3.46 0 0.9 -3.7 2.28 -5.64 -2 -5.64 -1.604 0.1332 -3.214 0.1664 -4.82 0.1 -1.644 -0.1302 -3.296 -0.1302 -4.94 0 -10.1606 0 -8.16 -1.18 -11.0808 10 -0.32 1.22 -0.52 1.38 -1.18 1.52 -6 1.18 -5.62 1.46 -5.5 0.8 0.5412 -3.2674 1.276 -6.4996 2.2 -9.68 0.24 -0.42 -0.22 -1.44 -1.54 -1.14 -15.14 3.44 -25.84 4.32 -28.46 6.52 -1.04 0.86 -0.1002 0.86 -0.3002 2 -0.28 1.7 -0.2198 7.12 -0.2198 7.16 0 0.48 -0.2 0.72 -0.64 0.88 -1.0816 0.4028 -2.2002 0.6978 -3.34 0.8802 -1.26 0.2 -1.7202 0.4598 -1.7402 -0.5202 -0.16 -9.34 1.16 -10.12 -3.1 -9.32l-6.1396 1.26c-12.6 3.58 -9.5002 -1.68 -9.5402 12 0 0.76 -0.0002 0.72 -5.2002 2 -1.1 0.26 -0.72 0.5 -1.1 -7.78 -0.22 -4.78 -0.44 -2.34 -20.54 1.32 -0.3414 0.0886 -0.6562 0.2586 -0.9176 0.4954 -0.2612 0.237 -0.461 0.5334 -0.5824 0.8646l0 0.34c0.36 4.82 0.66 5.46 -0.48 5.22 -1.5452 -0.1962 -3.1036 -0.263 -4.6598 -0.2 -1.08 0 -1.1402 0 -1.2202 -1.14 -0.12 -2 0.5002 -0.62 -0.2998 -3.32 -0.26 -0.88 -1 -0.56 -2 -0.36 -23.54 4.92 -14.98 3.3402 -26.66 3.1402 -1.9246 -0.2606 -3.8754 -0.2606 -5.7998 0 -6.96 1.42 38.2996 3.0198 51.1596 3.6198 8.36 0.4 6.2204 0.86 11.8604 -0.54 5.64 -1.4 142.2606 -28.42 142.4806 -28.46ZM118.1732 265.382c0.8442 -0.09 1.6956 -0.09 2.54 0 1 0.3 1.8998 -0.46 2.8798 -0.48 0.1 0 0.2004 -0.14 0.3004 -0.22 1.04 -0.74 0.42 -1.8 0 -5.78 -0.42 -5.18 -0.1402 -6 -0.5802 -7.42 -1.46 -4.36 3.1802 -4.22 -10.9398 -4.66 -1.38 0 -2.7004 -1.22 -2.3804 3.74 0.14 2.12 1.2402 10.58 1.1402 12.46 0.02 2.32 3.06 1.86 7.04 2.36Zm2.8598 -42.34c-0.38 -4.14 0.7404 -3.78 -9.6396 -3.78 -0.48 0 -2.0004 -0.18 -2.8604 -0.16 -2.68 0.14 -1 4 -1.08 8.18 0 0.14 1.22 13.32 2 13.44 3.36 0.5 -0.6798 0.36 10.2402 0.62 0 0.14 3.0598 0.44 2.7598 -1.44 -0.2458 -1.876 -0.3926 -3.766 -0.44 -5.66 -0.4468 -3.026 -0.687 -6.08 -0.7198 -9.14 -0.1348 -0.68 -0.222 -1.368 -0.2602 -2.06Zm158.479 -52.7194c1.46 -5.72 4.622 -9.6998 -1.298 -8.6598 -2.06 0.578 -4.17 0.9596 -6.302 1.1398 -0.16 0 -0.3 0.12 -0.44 0.16 -12.76 3.32 -15.038 2.4 -16.138 7.88 -0.24 1.2 -0.48 1.78 -5.64 27.64 -0.28 1.42 1.38 1.9994 2.4 1.7394 1.68 -0.4594 17.04 -1.9994 17.5 -1.9994 0.46 0 0.338 0.36 -0.582 3.6194 -1.38 4.8 -1.078 4.7 -1.818 4.74 -3.3 0.12 -15.04 1.44 -16.64 1.46 -3.3 0 -3.062 3.36 -4.602 10.26 -4.32 19.38 -5.34 17.62 0 17.62 14.16 -0.76 10.82 -1.1 12.52 -0.98 0.594 0.012 1.174 -0.18 1.644 -0.544 0.47 -0.364 0.8 -0.878 0.938 -1.456 1.12 -3.2 16.998 -56.8994 18.458 -62.6194Zm-27.358 92.4794c6.38 -22.3 6.478 -18.38 -1.222 -18.32 -7.7 0.06 -10.538 -0.58 -10.878 1.18 0 0.2 -4 20.96 -4 23.58 0 0.98 12.438 0.44 13.398 0.26 0.96 -0.18 2.442 -5.78 2.702 -6.7Zm-4.6 -84.4594c2.36 -11.48 3.02 -11.2798 -7.26 -9.1798 -13.58 2.74 -22.24 2.2798 -22.96 5.8798 -0.14 5.28 -1.26 10.5 -2 19.66 -0.2 2.62 -0.26 6.2794 -0.3 6.3394 -0.32 0.6 -0.72 3.38 1.28 3.3 2 -0.08 25.46 -2.86 25.52 -2.88 2.34 -0.08 2.08 -5.4194 5.72 -23.1194Zm-6.122 32.7194c0.28 -1.54 -1.338 -2 -2.338 -1.86 -3.12 0.64 -4.6 0.52 -8.98 1.02 -20 2.32 -15.54 -2 -17.02 9.84 -2 16.18 -3.762 17.88 0.858 17.66 22.8 -1.04 22.162 -0.96 22.682 -2.62 0.2 -0.7 4.998 -23.98 4.798 -24.04Zm-10 48c3 -15 5.44 -14.54 -2 -14.32 -23.08 0.72 -18.98 -1.78 -20 5.38 -0.76 5.44 -1.178 12.72 -1.218 13.3 -0.04 0.58 0.418 0.98 0.238 1.48 -2.18 5.78 3.2 4 15.5 4.74 6.66 0 5.662 0.84 7.162 -7.82 0.236 -0.908 0.356 -1.842 0.358 -2.78l-0.04 0.02Zm-20.96 -81.8594c0.42 -2.48 -2.198 -1.7 -3.798 -1.4 -1.6 0.3 -15.441 3.56 -17.661 3.64 -2.898 0.3152 -5.7542 0.9388 -8.52 1.86 -0.58 0.44 -1.0198 0.94 -0.7998 1.56 0.4 1.14 -0.3002 12.22 0.2598 20.4194 -0.1 0 -0.5598 4.66 1.8202 4.52 0.92 0 23.6008 -2 25.3208 -2.7 1.36 -0.54 0.84 0.12 1.54 -8.8594 0.76 -9.68 1.28 -11 1.58 -15.22 -0.066 -1.2876 0.036 -2.5782 0.298 -3.84l-0.04 0.02Zm-3.698 35.9994c-2.12 -1.04 0.98 -0.62 -8.701 0 -18.68 1.12 -18.18 1.12 -18.14 2.76 0 4 -0.1398 9.56 0.2202 15.12 0.62 10 -2.4202 8.36 15.3798 7.28 0 0 6.141 -0.2 6.681 -0.14s2.32 -0.3 2.58 -0.92c1.26 -2.94 2.52 -23.96 2.02 -24.2l-0.04 0.1Zm-2.64 37.06c-0.38 -2.16 0.4 -3.42 0.2 -4 -0.2 -0.58 -0.802 -1.04 -1.842 -0.92 -2.3 0.28 -4.599 0.14 -6.899 0.24 -1.54 0 -6.1198 0.72 -9.3198 0.66 -5.14 0 -5.62 -0.2 -5.64 1.26 -0.22 20.96 0 6.78 0 18.9 0 2 1.2802 1.82 5.7202 2.2 3.1158 0.408 6.2592 0.562 9.3998 0.46 4.24 0 2.4 0.64 6.0008 -0.42 1.32 -0.4 1.138 -7.38 1.258 -8 0.12 -0.62 1.362 -10.88 1.162 -10.48l-0.04 0.1Zm-28.4808 14.66c-0.18 -4.6 -0.88 -17.34 -0.9 -17.38 -0.14 -0.6 -0.7602 -1.24 -1.3002 -1.14 -0.12 0 -12.7998 0 -12.7998 0.18 -8.52 0 -7.5202 -0.78 -7.1602 7.38 -0.0914 0.752 -0.0914 1.51 0 2.26 0.3226 1.798 0.5166 3.616 0.58 5.44 0.48 2.44 -0.14 4.16 0.92 4.82 2 1.28 14.1804 1.12 17.8604 1.5 1.56 0.06 2.9198 -0.7 2.8398 -3.16l-0.04 0.1Zm-3.5602 -25.34c3.28 0 2.6404 -1.42 2.3004 -20 0 -2.18 -0.2802 -4.42 -2.7202 -4.12 -23.08 2.76 -20.2802 -1.52 -19.6602 11.12 0 1.24 0 2.48 0.1 3.72 0.1 1.24 0.28 2.78 0.38 4.16 0.6 8.7 -0.7398 6.12 7.8202 6 6.84 -0.42 5.28 -0.98 11.82 -0.98l-0.0402 0.1Zm1.5 -31.76c0.66 -1.74 -0.12 1.18 -0.16 -18.4192 0 -1.18 -0.34 -3.18 -0.38 -4.74 -0.0012 -0.2732 -0.0658 -0.5426 -0.189 -0.7864 -0.1232 -0.244 -0.3016 -0.4556 -0.521 -0.6186 -0.2192 -0.163 -0.4736 -0.273 -0.7426 -0.3206 -0.269 -0.0478 -0.5452 -0.0322 -0.8072 0.0454 -1.04 0.18 -6.64 1.28 -7.56 1.54 -6 1.72 -12.2 1.06 -12.9 4.24 -0.2574 2.8868 -0.1704 5.7938 0.2598 8.66 0.36 4.4194 0.16 6.8794 0.5 11.2794 0.1016 0.572 0.3578 1.104 0.7402 1.54 0.56 0.96 11.6998 -1.02 14.2798 -0.92 6.68 -0.68 7.0402 -0.42 7.5202 -1.6l-0.0402 0.1Zm-28.8798 58.66c5.3 0 4.48 0.86 3.42 -12 -0.44 -5.28 -0.28 -7.24 -1.86 -7.52 -3.4734 -0.3 -6.9664 -0.3 -10.44 0 -8.58 0.62 -7.2604 -3.38 -6.4204 13.74 0 2 -0.3798 4.64 2.1402 4.66 2.2 0 2.74 0.56 4.94 0.48 4.34 -0.06 8.2602 1.02 8.2602 0.54l-0.04 0.1Zm2.56 -26.44c0.3 -0.4 -0.1602 -0.58 -0.2402 -1.44 -0.72 -8.32 -0.5198 -19.66 -2.2198 -20.3 -2.52 -0.98 -9.66 0.82 -12.14 0.86 -1.6098 -0.026 -3.2146 0.19 -4.7604 0.64 -0.92 0.34 -1.0796 0.6 -1.0996 1.62 0 5.84 1.1598 18.74 1.1798 18.94 0.1356 0.418 0.4052 0.78 0.7666 1.03 0.3614 0.248 0.7948 0.372 1.2334 0.35 6.8 -0.68 16.4402 -0.06 17.3202 -1.7h-0.04Zm-13.62 -26.94c14.3 -1.02 11.3796 0 10.2596 -13.3594 -0.0202 -0.0788 -0.0202 -0.1614 0 -0.24 0.36 -0.54 0 -1.0798 0 -1.6198 -0.54 -4.3 -0.2 -2.9202 -0.5 -5.4402 -0.26 -2.16 -1.4398 -3.82 -2.8998 -3.4 -1.46 0.42 -10.2998 2.34 -11.8598 2.7 -3.88 0.84 -4.6 -1.14 -2.96 15.9994h-0.1202c0.56 6.3 -0.4198 5.86 8.1202 5.26l-0.04 0.1Zm-15.7998 0.96c3.32 0 1.9994 -1.7 1.0594 -16.3194 0.6 -1.54 -0.3598 -1.2 -0.4798 -2.24 -0.34 -2.88 0.12 -3.72 -1.84 -3.8 -12.92 -0.46 -11.2998 -2.18 -11.2998 2.76 0 20.2394 0.2602 19.2594 5.0602 19.4594 0.24 -0.08 7.44 0.24 7.54 0.12l-0.04 0.02Zm-12.7002 34.66c-0.34 -3.5 -2.5404 -1.76 -10.2404 -3.08 -1.38 -0.24 -1.6998 1.58 -1.4598 2.7 0.38 1.82 1.74 14.22 2 14.56 1.42 1.8 2.2202 1.52 7.2802 1.66 5.64 0.04 3.96 -0.84 2.42 -15.94v0.1Zm-5.32 -8.22c2 0.24 4.32 0.14 3.84 -1.88 -0.68 -2.84 -0.5 -10 -1.04 -12 -0.4962 -2.224 -0.7378 -4.5 -0.7204 -6.78 0 -0.3 -0.92 -1.28 -2 -1.18 -5.88 0.54 -9.9996 -1.42 -9.6596 2 0 0 1.2598 14.14 1.2798 14.18 0.373 1.054 0.5626 2.164 0.56 3.28 0.3 2.9 3.4004 1.74 7.7804 2.28l-0.0402 0.1Zm1 -34c-1.26 -13.2594 -0.2402 -15.9994 -3.4002 -15.9994 -2.2312 0.092 -4.4658 -0.0084 -6.6798 -0.3 -1.1 -0.28 -3.1 0.16 -3.12 1.76 0.0972 5.2706 0.4846 10.5314 1.16 15.7594 0.64 6.26 -0.7402 5.26 8.7398 5.68 4.66 0.12 3.9804 -0.22 3.3404 -6.9h-0.0402Zm-15.7202 56.74c2 0.44 5.7202 0.64 5.5202 -1.38 -2 -18.8 0.0002 -16.58 -8.2398 -17.16 0 0.32 -3.5004 -0.52 -3.8204 0.66 -0.76 2.78 1.5202 9.14 1.5802 13.2 0.08 3.34 2.02 4 5 4.68h-0.0402Zm0.82 -23.78c0.5132 -0.124 0.9708 -0.416 1.3002 -0.828 0.3296 -0.412 0.5126 -0.924 0.52 -1.452 -0.64 -6 -1.02 -10.68 -1.08 -11.6 -0.1 -2 -0.5998 -4 -0.7998 -6.12 -0.0152 -0.188 -0.0676 -0.374 -0.1544 -0.542 -0.0866 -0.17 -0.206 -0.32 -0.351 -0.442s-0.3132 -0.216 -0.4942 -0.274c-0.181 -0.056 -0.3712 -0.078 -0.5606 -0.062 -4.4 0.38 -7.58 -0.88 -9.62 0.74 -0.54 0.42 0 0.86 0 1.3 -0.0572 0.96 0.0166 1.922 0.2196 2.86 0.5 2 -0.1396 2 0.8604 6.58 2 9.36 -1.2002 9.22 7.7398 9.7 0.8 0.06 1.64 0.16 2.46 0.14h-0.04Zm-2.88 -26.96c1.8 0.44 2.8802 -2 2.2602 -3.22 -0.2888 -0.814 -0.431 -1.674 -0.4198 -2.54 -4 -20.5794 2.4596 -16.2194 -11.4604 -17.9994 -2.34 0 -2.66 0.34 -1.88 4.8 0.8 3.44 1.42 16.3794 1.42 16.4194 0.1242 0.448 0.3496 0.86 0.6582 1.208 0.3084 0.346 0.6924 0.618 1.122 0.792 6.54 0.66 6.62 0.08 8.4 0.54h-0.1002Z" stroke-width="1"></path><path id="Vector_11" fill="#b2b2b2" d="M165.3936 339.762c-2 0 -2.8804 0.82 -3.4404 0.14 -1.5044 -1.676 -2.4554 -3.776 -2.7238 -6.012 -0.2684 -2.238 0.1588 -4.502 1.2238 -6.488 1.8 -3.24 5.36 -4.62 5.56 -3.4 0.16 1.78 0.0002 2 -0.6798 2.52 -2.3 2 -2.96 7.82 0.46 12.32 0.16 0.2 0.9002 0.98 -0.3998 0.92Z" stroke-width="1"></path><path id="Vector_12" fill="#e1edf2" d="M181.7128 215.722c5.9 0 5.7596 -1.66 5.2396 1.86 -0.32 2.18 16.3996 2.9 16.7796 2.9 1.34 0 1.28 -0.64 1.66 -1.1 0.12 0.48 -1.1 11.42 -1.16 15.08 0 0.74 -0.22 2 -0.96 2.14 -1.44 0.26 -2.94 0.54 -2.56 -0.74 2.7 -9.44 2.54 -9.26 1.34 -9.5 -0.36 0 -10.4394 -1.58 -14.5394 -2 -0.615 0.094 -1.183 0.384 -1.6192 0.828 -0.4362 0.444 -0.7172 1.016 -0.8008 1.632 -0.78 4 -2 9.5 -2.12 10 -0.2 0.94 -1.0396 0.82 -1.0796 0.12 -0.02 -0.16 -1.3002 -21.06 -0.1802 -21.22Z" stroke-width="1"></path><path id="Vector_13" fill="#f6f2ff" d="M161.2934 322.982c-0.46 -4.16 -1 -3.56 2.94 -4.14v0.44c-0.3306 0.048 -0.6486 0.158 -0.9356 0.33 -0.287 0.17 -0.5378 0.396 -0.7368 0.664 -0.1992 0.268 -0.343 0.572 -0.4234 0.896 -0.0802 0.324 -0.0954 0.66 -0.0444 0.99 0 1.16 0.1002 1.32 -0.3198 1.46 -0.42 0.14 -0.38 -0.28 -0.48 -0.64Z" stroke-width="1"></path><path id="Vector_14" fill="#ccffe5" d="M209.674 31.0428c-0.018 1.051 -0.258 2.0868 -0.7 3.04 -0.232 0.5894 -0.59 1.1204 -1.05 1.556 -0.46 0.4354 -1.01 0.7646 -1.61 0.964 -0.89 0.3556 -1.854 0.4926 -2.808 0.3994 -0.954 -0.093 -1.872 -0.4136 -2.678 -0.9346 -0.804 -0.521 -1.4728 -1.2272 -1.9486 -2.0598 -0.4758 -0.8324 -0.7454 -1.767 -0.7856 -2.725 0.02 -5.76 9.6402 -10.36 11.5802 -0.24Z" stroke-width="1"></path><path id="Vector_15" fill="#ccffe5" d="M67.4536 100.0426c6 -0.96 3.3402 9.22 -2.4198 6.76 -1.78 -0.76 -1.6202 -6.22 2.4198 -6.76Z" stroke-width="1"></path><path id="Vector_16" fill="#fff2b2" d="M256.594 80.5028c-0.2 0.68 -6.18 2.1798 -7.26 2.4198 -3.64 0.78 -1.06 1.7604 -1.22 8.4804 -0.12 4 0.16 5.4396 -2.34 1.0196 -1.46 -2.6 -3.38 -6.1598 -4.8 -5.1198 -2.27 1.4342 -4.642 2.6978 -7.1 3.78 -3.82 1.86 6 -8.22 4.32 -9.52 -0.5 -0.38 -4.82 -3.6 -4.78 -4.7 0.04 -1.1 6.32 0 7.06 0 1.52 0 1.56 -0.0002 2 -0.4402 1.48 -1.7 3.84 -5.2798 4 -5.3798 2.6 -4 -1.14 7.7802 1.7 7.6202 0.74 -0.02 8.64 1.1398 8.42 1.8398Z" stroke-width="1"></path><path id="Vector_17" fill="#fff2b2" d="M183.154 124.9426c1.12 0.36 -5.5004 1.2802 -6.2404 1.3602 -2.26 0.22 -0.8598 4.9198 -1.8198 8.6198 -0.82 -0.18 -1.62 -3.1798 -3.14 -5.3198 -0.88 -1.24 -0.68 -2.48 -1.84 -2.24 -1.9554 0.7934 -3.9594 1.4614 -6 2 -1.24 0.22 1.74 -2.24 3.5 -3.84 1.16 -1.04 -0.14 -1.4602 -0.52 -1.8202 -0.38 -0.36 -3.0196 -3.28 -2.7396 -4 1.842 0.274 3.6654 0.6616 5.4598 1.1602 1.82 0.52 1.1998 -0.28 3.6398 -4 0 -0.1 2.5 -3.74 2.62 -3.8 0.1 0.72 -0.6198 5.1198 -0.3998 5.1798 -1.3 5.08 -2.32 3.64 7.48 6.7Z" stroke-width="1"></path><path id="Vector_18" fill="#fff2b2" d="M126.6334 60.6628c-6.58 9.38 -2.98 4.8598 1.18 13.0798 0 0 -0.2198 1.14 -0.4398 0.94 -2.3092 -0.705 -4.5356 -1.657 -6.6402 -2.8398 -2.44 -0.14 -4.3002 7.9998 -5.7002 7.3798 -1.4 -0.62 0.8802 -7.7998 0.2402 -9.6598 -0.16 -0.44 0.74 -0.2802 -3.02 -0.8802 -1.4708 -0.3484 -2.9202 -0.7822 -4.3404 -1.2998 0.2 -0.38 6.2406 -3.68 6.4406 -3.8 1.58 -0.88 0.3998 -6.9402 0.8798 -8.3402 0.4 0.32 3.1598 5.5202 3.3398 5.8602 0.94 1.88 4.82 -1.78 7.88 -2.54 0 0 0.7804 -0.36 0.9204 0s-0.2202 1.48 -0.7402 2.1Z" stroke-width="1"></path><path id="Vector_19" fill="#fff2b2" d="M98.3134 135.2226c-3.36 4 -4.7002 3.54 -2.7402 6 0.7772 1.2464 1.383 2.5918 1.8002 4 -0.22 0 -0.0002 0.0002 -3.2002 -2.1998 -2.28 -1.66 -2 -0.96 -7.58 3.48 -0.1958 0.0964 -0.4048 0.1638 -0.6202 0.1998 2 -4.8 2.16 -5.4598 1 -5.8198 -2.64 -0.8 -4.9996 -1.0802 -3.6996 -1.6802 5.76 -2.7 3.7398 -1.24 4.7598 -6 0.16 -0.74 0.0002 -1.7798 0.2402 -1.7198 0.24 0.06 0.2598 0 0.2798 0.14 0.5136 1.468 1.1842 2.876 2 4.2 0.4 0.9 0.7602 1.08 1.7002 0.78 1.8 -0.68 5.68 -1.0402 6.06 -1.3802Z" stroke-width="1"></path><path id="Vector_20" fill="#e1edf2" d="M92.6332 354.242c0.68 0 0.7598 0.52 1.3198 1.74 -0.12 1.66 -1.4798 3.44 -2.7398 2.36 -0.3246 -0.318 -0.5522 -0.722 -0.6562 -1.164 -0.1042 -0.442 -0.0804 -0.906 0.0684 -1.334 0.1486 -0.43 0.4164 -0.808 0.7718 -1.092 0.3556 -0.284 0.784 -0.46 1.236 -0.51Z" stroke-width="1"></path><path id="Vector_21" fill="#e1edf2" d="M155.9534 367.142c0.48 -0.18 1.7 0.86 1.52 2.62 -0.64 1.44 -1.3598 4.38 -3.3998 2.6 -1.56 -1.34 -1.3402 -3.98 1.8798 -5.22Z" stroke-width="1"></path><path id="Vector_22" fill="#e1edf2" d="M173.5926 328.322c1.54 0.42 0.3398 4.2 -1.1602 3.76 -2.14 -0.6 -0.5198 -4.44 1.1602 -3.76Z" stroke-width="1"></path><path id="Vector_23" fill="#e1edf2" d="M250.194 349.282c0.18 1.02 -0.422 3.88 -2.282 3.4 -0.346 -0.17 -0.644 -0.422 -0.866 -0.738 -0.224 -0.314 -0.366 -0.678 -0.412 -1.062 -0.04 -2.18 3.16 -3.96 3.56 -1.6Z" stroke-width="1"></path><path id="Vector_24" fill="#e5e5e5" d="M248.394 358.302c2 -0.28 -6.86 8.62 -9.3 -4.42 -0.5 -2.62 0.6 -6.38 1.6 -6.12 0.22 0 0.48 4.48 1.1 8.32 0.62 3.84 3.94 2.56 6.6 2.22Z" stroke-width="1"></path><path id="Vector_25" fill="#e5e5e5" d="M155.1536 379.402c1.02 -0.16 0.8 -0.14 0.5 0.56 -0.5282 0.804 -1.2418 1.468 -2.0806 1.938s-1.7782 0.732 -2.7392 0.762c-2.24 -0.54 -4.54 -0.18 -6.46 -7.86 -0.5604 -2.338 -0.292 -4.798 0.7598 -6.96 1.66 -2.86 1.2598 0.62 1.7998 4.46 1.08 8.52 1.6202 8.1 8.2202 7.1Z" stroke-width="1"></path><path id="Vector_26" fill="#e5e5e5" d="M92.2336 364.042c0.4 1.86 -5.3604 4 -7.3004 0.88 -4.26 -7.16 -0.52 -12.44 0 -11.02 0.26 0.84 0.1404 2.4 0.4004 4.16 0.36 2.36 -0.1802 6.22 3.2598 6.3 2.56 0.02 3.6002 -0.6 3.6402 -0.32Z" stroke-width="1"></path><path id="Vector_27" fill="#b2b2b2" d="M252.932 356.622c0.68 -0.44 0.662 -1.22 0.422 0.32 -2 13.48 -21.04 10.48 -20.98 -4 0.012 -1.82 0.464 -3.612 1.32 -5.22 2.78 -5.2 5.46 -4.94 6.16 -5.14 0.7 -0.2 0.538 0.54 0.678 1.82 0.22 2 -1.26 0.42 -2.58 4.58 -1.48 4.62 0.202 11.38 4.342 13.02 0.74 0.32 1.536 0.484 2.342 0.48 0.806 -0.002 1.604 -0.17 2.342 -0.496 0.736 -0.324 1.4 -0.798 1.946 -1.39 0.546 -0.592 0.964 -1.292 1.228 -2.054 0.26 -0.88 0.3 -0.36 2.78 -1.92Z" stroke-width="1"></path><path id="Vector_28" fill="#b2b2b2" d="M161.3934 376.162c-0.0714 2.656 -0.8972 5.236 -2.3804 7.44 -0.9848 1.334 -2.248 2.436 -3.702 3.23 -1.4542 0.794 -3.0644 1.262 -4.7178 1.37 -1.983 -0.014 -3.9448 -0.408 -5.7798 -1.16 -12 -5.78 -10.7204 -23.52 0.0996 -26.14 0.82 -0.2 0.7204 0.96 0.9204 2.76 0.12 1.26 -1.5804 0.58 -2.8004 4.12 -1.1898 3.328 -1.0896 6.982 0.2804 10.24 0.2654 1.342 0.8642 2.594 1.7416 3.644 0.8774 1.048 2.005 1.858 3.2784 2.356 0.9064 0.376 1.8826 0.55 2.8628 0.516 0.98 -0.034 1.9412 -0.28 2.8188 -0.718 0.8776 -0.438 1.6514 -1.058 2.2686 -1.82 0.6172 -0.762 1.0636 -1.648 1.3096 -2.598 0.14 -0.64 0.18 -0.46 2.16 -1.4 0.743 -0.404 1.3228 -1.054 1.6402 -1.84Z" stroke-width="1"></path><path id="Vector_29" fill="#b2b2b2" d="M96.9536 362.042c-0.1026 2.206 -0.9322 4.316 -2.3598 6 -7 7.66 -20.38 0.46 -17.44 -12.26 0.3936 -1.624 1.2008 -3.118 2.3434 -4.338 1.1426 -1.22 2.5816 -2.122 4.1768 -2.622 1 -0.18 0.8198 1.12 0.8198 1.6 0.1106 0.346 0.0904 0.722 -0.0572 1.052 -0.1476 0.332 -0.4116 0.598 -0.7426 0.748 -1.7 0.94 -2.4604 5.24 -2.2604 7.28 0.8 7.64 5.8002 10 9.7202 8 3.02 -1.58 2.16 -3.7 3.4 -4 1.54 -0.52 1.7998 -1.24 2.3998 -1.46Z" stroke-width="1"></path><path id="Vector_30" fill="#fffbe5" d="M294.492 124.0428c1.24 -10 10 -4.9802 7.28 0.6398 -1.24 2.46 -2.16 4.0002 -5.26 3.1802 -1.36 -0.28 -2.18 -2.36 -2.02 -3.82Z" stroke-width="1"></path><path id="Vector_31" fill="#fff6cc" d="M286.132 116.1826c0.778 -1.7064 2.164 -3.0614 3.888 -3.801 1.724 -0.7396 3.66 -0.8106 5.432 -0.199 -0.26 0.24 -2.14 1.08 -2.44 1.3 -3.72 2.68 -5.46 8.68 -5 13.04 0.31 1.598 0.82 3.1506 1.52 4.6202 0.86 2 1.44 1.54 1.9 2.22 1 1.48 -5.48 1.4998 -7.12 -4.3602 -1.16 -4 -1.6 -8.64 1.82 -12.82Z" stroke-width="1"></path><path id="Vector_32" fill="#fff6cc" d="M203.414 110.2028c-0.262 0.2802 -0.542 0.541 -0.84 0.78 -2.3 2.1352 -3.6708 5.086 -3.8206 8.22 -0.4 2.8252 0.3174 5.6954 2.0006 8 0.38 0.6 2 1.52 0.62 1.52 -6.1404 -0.46 -7.1408 -10.22 -4.8408 -13.7 0.18 -0.2 2.62 -6.32 6.8808 -4.82Z" stroke-width="1"></path><path id="Vector_33" fill="#fff6cc" d="M212.054 114.403c0.4 0.84 -6.14 -0.8802 -7.36 3.8798 -1 4 0.94 6.32 2.44 6.48 4.76 0.54 4.638 0.3802 4.378 0.8802 -2.32 4.4 -13.6588 4 -10.798 -9.28 0.84 -4 4 -6.0002 5.84 -5.8402 3.54 0.42 3.96 0.6602 5.5 3.8802Z" stroke-width="1"></path><path id="Vector_34" fill="#eee5ff" d="M211.314 124.2626c-2.56 0 -4.92 0.2202 -5.54 -2.3798 -0.188 -0.6604 -0.232 -1.353 -0.134 -2.0322 0.098 -0.6794 0.336 -1.3304 0.702 -1.9112 0.366 -0.5806 0.85 -1.078 1.42 -1.46 0.57 -0.3818 1.216 -0.6398 1.892 -0.7568l72 1.6002c2.54 0 0 -0.4602 -0.1 6.8798 -0.146 0.9124 -0.034 1.847 0.32 2.7002 0.18 0.44 -70.36 -2.6402 -70.56 -2.6402Z" stroke-width="1"></path><path id="Vector_35" fill="#e1edf2" d="M272.394 187.7828c0.7 0 0.6 0.2 -0.9 5.5 -0.34 1.28 -0.42 1.1 -1.06 1.04 -2.18 -0.14 0.66 0.12 -13.6 -0.96 -6 -0.46 -5.12 0.8602 -4 -5.1998 0.46 -1.88 -1.68 -1.4602 19.56 -0.3802Z" stroke-width="1"></path><path id="Vector_36" fill="#e1edf2" d="M247.634 282.602c8.2 19.86 14.44 30 13.88 34.34 0.4 14 -15.28 14.92 -24 16.84 -6.46 1.4 -84.0006 16 -88.4206 16.66 -15.12 2.5 -5.4398 2.9 -55.2598 -7.3 -9.2 -1.88 -18.8802 -2.86 -18.6002 -6.56 0.56 -4.28 2.38 -3.34 12.34 -6 40.38 -10.88 84.4602 -17.74 91.8202 -24.78 5.86 -5.6 -5.4602 -23.12 -6.7802 -28 0.3454 -0.04 0.6946 -0.04 1.04 0 6.54 0.78 4.0002 -0.52 8.6402 9.14 0.44 0.92 4 9.62 4 9.62 1.0548 2.436 1.2326 5.164 0.5034 7.716 -0.7294 2.552 -2.3208 4.774 -4.5034 6.284 -6.56 4.48 -6.8802 2.94 32.3404 9.5 33.18 5.54 32.36 6 35.7 4.32 1.328 -0.846 2.402 -2.038 3.106 -3.446 0.704 -1.408 1.014 -2.982 0.894 -4.554 -0.12 -4 -6.36 -17.68 -7.36 -19.72 -8.6 -17.5 -9.06 -16 -3.76 -15.16 4.46 0.54 4.18 0.54 4.42 1.1Zm-10.86 45.62c0.44 -0.38 0.18 -1 -0.68 -0.96 -16.12 0.46 -21.46 -2.58 -38.9406 -5.26 -27.14 -4.18 -22.7 -8.34 -50.98 -0.66 -66.84 18.18 -53.44 11.7 -62.92 12.72 -0.6 0 -0.22 0.82 0.38 1.06 0.6 0.24 48.98 11.14 52 11.22 29.34 -4.1 42.18 -7.88 64.6006 -11.34 2.24 -0.36 34.7 -5.24 36.54 -6.78Z" stroke-width="1"></path><path id="Vector_37" fill="#e1edf2" d="M258.814 226.482c2.4 0.24 2.6 0.2 2.38 0.88 -2 6.72 -1.462 6 -3.282 6l-0.378 0c-14.4 -1.56 -13.22 -1.64 -13.02 -2.62 1.72 -8.54 0.218 -5.26 7.438 -5.16 1.74 0.2 1.202 0.34 6.862 0.9Z" stroke-width="1"></path><path id="Vector_38" fill="#e1edf2" d="M239.252 262.482c10.26 1.52 11.28 1.18 10.94 2.12 -2 5.56 -1.76 2.78 -5.74 3.66 -0.664 0.076 -1.334 0.076 -2 0 -4.62 0 -4.8 0.38 -4.74 -1.44 0.82 -4.32 0.64 -4.46 1.54 -4.34Z" stroke-width="1"></path><path id="Vector_39" fill="#e1edf2" d="M245.472 181.1628c0.32 0.68 0.16 0 -3.22 18 -0.22 1.1792 -2 1.1992 -1.84 0.2998 0.48 -1.88 1.3 -4.4798 1.56 -5.3598 0.84 -2.94 -5.04 -1.68 -20 -3.2 -0.592 -0.0212 -1.176 0.1504 -1.662 0.4894 -0.488 0.339 -0.852 0.827 -1.036 1.3904 -3.72 14.5194 -2.98 10.7194 -2.48 4.72 0.04 -3.4994 0.302 -6.993 0.778 -10.46 0.586 -3.3028 0.914 -6.6462 0.98 -10 0 -1.06 0 -2.2398 0.92 -2.3998 0.992 -0.4024 2.036 -0.6648 3.1 -0.78 0.92 0 2.14 -1.1802 1.62 0.6798 -2.56 9.46 -2.18 8.54 -2.52 9.26 -0.16 0.3 -0.22 1.62 0.98 1.5 2 -0.2 13.2 1.1402 19.84 0.6002 0.3 0 0.742 0.16 0.882 0 1.44 -1.46 0.74 -0.0002 2 -4.3402 -0.22 -0.18 -0.002 -0.2998 0.098 -0.3998Z" stroke-width="1"></path><path id="Vector_40" fill="#e1edf2" d="M239.454 210.662c1.64 -0.22 -3.08 18.32 -3.3 19 -1.4 5.84 0.18 5.82 -4.12 5.7 -1.22 0 -1.16 -0.24 -0.72 -1.78 0.138 -0.654 0.382 -1.282 0.72 -1.86 0.56 -0.82 -0.14 -1.74 -1.26 -1.84 -10.16 -0.96 -3.58 -0.3 -12 -1.44 -5.52 -0.74 -5.24 -0.3 -5.18 -1.2 0.44 -5.62 0.48 -5.36 1.46 -5.34 21.32 0.78 17.88 7.36 22.1 -10.2 0.26 -0.86 0.76 -0.84 2.3 -1.04Z" stroke-width="1"></path><path id="Vector_41" fill="#e1edf2" d="M228.254 246.202c4.72 -0.38 4.56 -0.36 4.4 0.48 0 0 -3.82 17.46 -3.84 18.72 -0.28 2.98 -0.8 2.46 -5 2.44 -1.154 0.024 -2.302 -0.174 -3.38 -0.58 -4.68 -1.18 -10.82 -2 -10.78 -2.76 0.16 -2.48 0.56 -2.96 0.4 -2.98 0 -3.36 -0.72 -3.1 4 -2.46 8.5 1.14 7.38 1.36 9.52 0.76 1.58 -0.44 3.8 -13.54 4.68 -13.62Z" stroke-width="1"></path><path id="Vector_42" fill="#e1edf2" d="M207.754 184.4428c0.86 0 0.68 0.0002 0.34 2.9602 -0.28 2.26 0 2.5998 -0.76 2.5398 -4.92 -0.38 -4.28 -0.22 -12.5406 -0.88 -0.4784 0.0888 -0.9214 0.3132 -1.276 0.6466 -0.3544 0.3332 -0.6058 0.7612 -0.724 1.2334 -1.1 5.6 -2.68 9.3992 -2.98 13.1392 -0.16 2.32 -0.38 1.8 -6 2.18 -1.1 0 -0.76 -0.56 -0.48 -1.64 3.74 -15.0792 1.5398 -7.819 3.1998 -12.959 0.0984 -0.218 0.137 -0.4586 0.1112 -0.6964 -0.0256 -0.2378 -0.1144 -0.4644 -0.2572 -0.6562 -0.143 -0.1918 -0.3348 -0.3418 -0.5552 -0.4346 -0.2206 -0.0928 -0.4618 -0.125 -0.6988 -0.093 -3.32 0.2 -3.7398 0.88 -3.7398 0.22 -0.12 -5.66 -0.2002 -4.24 1.2998 -4.66 4 -1.08 5.7 -1.18 6 -3.32 0.16 -1.56 0.6998 -0.44 5.2198 -1.8 1.74 -0.52 0.9002 0.4 0.8202 1.8 -0.06 2.02 -0.3398 1.76 13.0208 2.42Z" stroke-width="1"></path><path id="Vector_43" fill="#e1edf2" d="M202.294 246.802c0.84 0.2 0.42 0.66 0.36 1.46 -1.24 17.28 -0.72 19.16 -4.1606 19.12 -6.44 0 -6.4396 0 -6.1796 -0.82 1.3 -4.58 1.8198 -4.7 -1.2202 -5.16 -9.2 -1.38 -8.96 -1 -8.96 -1.76 0 -4.7 -0.4602 -5.64 0.2798 -5.56 11.18 1.22 12.7004 2.48 13.4204 -0.14 2 -7.6 1.6796 -6.98 2.6596 -7 4.2406 -0.12 2.7806 -0.4 3.8006 -0.14Z" stroke-width="1"></path><path id="Vector_44" fill="#e1edf2" d="M173.9732 260.262c0 0.74 0.0004 0 -0.2196 5.14 0 1.2 -0.2002 0.68 -3.1002 0.54 -1.18 0 -0.0998 -3.52 0.2002 -4.26 0.166 -0.498 0.1286 -1.042 -0.1034 -1.514 -0.232 -0.472 -0.6404 -0.832 -1.1368 -1.006 -0.5 -0.12 -4.7398 -0.2 -5.2398 -0.22 -2.12 0 -4 -0.28 -4 1.86 -0.2 4.44 0.3 4.38 -1.04 4.44 -2.16 0.1 -2.8004 0.4 -2.8604 -0.28 -0.34 -5 -1.9998 -11.62 -1.4398 -15.66 0.14 -1.32 0.18 -1.38 1.5 -1.38 4.4 0 4.18 -0.48 4.14 1.66 -0.64 5.04 0.2202 4.32 7.7002 4.3 1.16 0 3.0998 0.16 3.6798 -0.76 0.58 -0.92 0.8402 0.12 1.2802 -1.24 0.44 -1.36 0.5796 6.02 0.6396 8.38Z" stroke-width="1"></path><path id="Vector_45" fill="#e1edf2" d="M173.0136 223.582c0 4.22 0.9002 3.18 -4.8998 3.64 -6.46 0.5 -7 0 -7.08 2.82 -0.3 9.62 0 8.7 -0.9 8.76 -4.44 0.3 -5.4802 0.74 -5.6202 -0.88 -0.68 -7.54 -0.7998 -5.86 -0.8998 -7.44 -0.22 -2.98 0.1002 -6.16 -0.2398 -7.48 -0.12 -0.44 0.64 -0.44 0.98 -0.62 1.62 -0.82 0.5196 -0.8 1.1396 -1.44 0.62 -0.64 0.24 -1.76 0.46 -2.38 0 -0.18 0.34 -0.44 0.48 -0.42 0.96 0 1.8804 -0.16 2.8404 0 0.96 0.16 2 -0.64 2 0.34 0 4 -0.8802 3.48 6.3798 2.62 5.74 -0.66 5.3398 -0.76 5.3598 0 0.14 2.14 -0.04 2.48 0 2.48Z" stroke-width="1"></path><path id="Vector_46" fill="#e1edf2" d="M171.1528 187.623c0.48 0 0.6402 -0.0002 0.6202 0.5598 -0.18 4 1.3196 3.72 -1.7404 4.34 -8.76 1.74 -7.9998 0.62 -8.3198 7.46 -0.28 8.4792 0.0002 8.2792 -0.8198 8.2792s-1.42 0.28 -4 0.44c-0.88 0 -0.6402 0.28 -0.7002 -3.38 -0.1 -7.9992 0.78 -9.2392 0 -9.6392 -1.56 -0.72 -0.42 -0.16 -3.46 0.26 -1.22 0.18 -0.46 -0.36 -1.08 -4 -0.14 -0.82 0.3598 -0.82 2.3798 -1.36 2.76 -0.74 2.3 -0.14 2.9 -3.32 4.78 -0.78 5.4004 -1.28 5.3404 0 -0.1 1.86 -0.28 2.16 2 1.5 2.2726 -0.4952 4.5688 -0.8756 6.8798 -1.1398Z" stroke-width="1"></path><path id="Vector_47" fill="#e1edf2" d="M146.753 254.182c0.44 4.18 0.44 4.34 -0.44 4.26 -1.18 0 -2.36 0.12 -3.54 0.12 -0.66 0 -1.06 0.48 -1.44 0.96 0 0 -0.0002 -0.2 0.1998 4.74 0 0.62 -0.14 0.44 -4.44 0.2 -1.84 0 -1.6602 -0.36 -1.6202 -1.1 0.1 -1.76 -0.34 -6.1 -2 -5.32 -0.76 0.36 -1.4796 0 -2.2196 0 -0.74 0 -0.6804 -1.44 -0.7804 -3.48 0 -1.06 0.0004 -1.2 2.8604 -0.84 0.2608 0.054 0.5316 0.036 0.7828 -0.052 0.2512 -0.09 0.473 -0.246 0.642 -0.452 0.169 -0.206 0.2786 -0.454 0.3164 -0.718 0.038 -0.262 0.0026 -0.532 -0.1016 -0.778 -0.2332 -0.846 -0.3274 -1.724 -0.2798 -2.6 0 -1.04 0.4202 -0.86 3.1202 -0.86 2.14 -0.24 2.82 -0.5 2.92 0.32 0.3 2.88 0.54 2.4 0.62 2.8 0.08 0.4 -0.0004 1.18 0.1396 1.54 0.46 1.6 5.1404 0.04 5.2604 1.26Z" stroke-width="1"></path><path id="Vector_48" fill="#e1edf2" d="M144.8338 224.142c0.3 5.16 0.4396 4.9 -0.3804 5 -4.24 0.56 -4.5996 -1.02 -4.1196 6.5 0.26 4.22 0.4398 4.12 -0.5402 4.22 -0.944 0.09 -1.8922 0.13 -2.8402 0.12 -2.52 0 -2.5996 0.16 -2.6196 -0.86 -0.2 -8 -0.2404 -5.44 -0.2604 -7.42 0 -0.74 -1.28 -1.88 -1.64 -1.7 -1.0308 0.37 -2.133 0.492 -3.2198 0.36 -0.74 0 -0.7002 -2.94 -0.7202 -3.86 -0.02 -0.92 -0.4 -1.1 1 -1.32 1.4 -0.22 2.5202 0 3.6802 -0.96 0.6 -0.52 0.4998 -0.64 0.4198 -3.26 0 -0.72 0.28 -0.38 5.42 -1.3 0.6 -0.12 0.6004 0 0.8204 2.72 0.22 2.72 4.9 0.3 5 1.76Z" stroke-width="1"></path><path id="Vector_49" fill="#e1edf2" d="M132.813 203.642c0.16 -2.6 0.2996 -2.46 -0.3204 -3.32 0 -0.1 -0.34 0 -0.5 0 -1 -0.26 -1.6796 0.1 -3.6996 0.5 -1.46 0.32 -1.44 0.32 -1.48 -1.1194 0 -0.88 -0.1402 -1.7598 -0.1802 -2.6198 0 -1.7 1.9998 -0.68 4.8198 -2 0.94 -0.44 1.14 -0.7602 0.98 -1.8202 -0.16 -1.06 -0.2396 -0.68 4.8204 -1.82 0.98 -0.22 1.1398 0 1.2998 0.74 0.16 0.74 1.12 1.8002 1.64 1.4602l0.3198 -0.1402c1.32 -0.44 1.7004 -0.1998 1.7604 1.1402 0.18 3.4 0.5798 3.3 -0.7402 3.52 -3.74 0.68 -2.56 0.68 -2.34 12.6992 0 0.3 -0.26 0.32 -2 0.48 -4 0.38 -4 0.52 -4.1 -0.8 -0.22 -6.06 0.0602 -0.08 -0.2798 -6.9Zm0.2598 4.9c0 0.24 0 0.14 0 0Z" stroke-width="1"></path><path id="Vector_50" fill="#e1edf2" d="M122.4936 257.282c0 0.52 -0.0002 0.76 -0.5402 0.66 -1.56 -0.36 -3.1796 0 -4.7396 -0.38 -1.06 -0.32 -0.9602 0.7 -1.2402 2.98 0.4 3.5 0.9202 3.22 -2.7398 2.72 -0.32 0 -0.4402 -0.3 -0.6602 -3.4 -0.78 -10.78 -1.82 -11.72 -0.44 -11.72 0.8 0 2.3002 0.24 2.6002 0.14 0.3 -0.1 0.1198 0 0.7398 3.58 0 0.44 0 1.52 1.56 1.58 1.4576 0.12 2.9224 0.12 4.3798 0 1.02 -0.18 0.8002 1.38 1.0802 3.84Z" stroke-width="1"></path><path id="Vector_51" fill="#e1edf2" d="M120.113 230.782c0 0.58 -0.0002 0.68 -4.6402 0.78 -0.5 0 -0.84 0 -0.96 0.66 0 0.28 -0.3398 0.54 -0.3798 0.84 -0.46 2.48 0.0002 -0.72 0.1402 6.56 -2.98 0.2 -3.3802 0.34 -3.7002 -0.62 0 -0.14 -0.5798 -4 -0.7398 -4.58 -0.16 -0.58 0 -1.36 0 -2 -0.3572 -1.526 -0.525 -3.092 -0.5 -4.66 0.18 -1.88 -1.2002 -7.28 -0.1602 -7.26 3.8 0 3.6998 -0.12 3.7998 0.8 0.58 5.48 0.2 4.66 2 5.7l0.2202 0c1.3732 -0.284 2.7626 -0.484 4.1602 -0.6 0.68 -0.24 0.4398 0.18 0.7598 4.38Z" stroke-width="1"></path><path id="Vector_52" fill="#e1edf2" d="M117.9136 201.922c0 1.34 -0.2596 0.58 -5.5396 2.18 -0.76 0.24 -1.0604 -0.18 -0.8804 1.32 0.92 7.62 1.54 7.32 -2 6.92 -0.66 0 -1.6598 -0.2 -1.7598 -0.84 -0.58 -4.12 -1.06 -14.1994 -1.06 -17.7394 0.24 -1.34 -0.0002 -1.2598 2.2598 -1.0998 2.64 0 1.32 -0.4002 2.6 5.6198 0.26 1.14 3.0602 0.1802 5.0202 -0.1198 1.16 -0.12 1.1598 -0.3202 1.3598 3.7592Z" stroke-width="1"></path><path id="Vector_53" fill="#e1edf2" d="M104.0528 253.902c0.2344 1.14 0.355 2.298 0.3598 3.46 -0.7074 0.116 -1.423 0.17 -2.1396 0.16 -6.2 -0.14 -6.0002 0.22 -6.2002 -1.6 -0.34 -2.3 -0.3998 -2.5 0.2402 -2.5 8 0 7.6598 -0.18 7.7398 0.48Z" stroke-width="1"></path><path id="Vector_54" fill="#e1edf2" d="M101.5532 232.202c0 0.56 0.16 0.92 -7.62 1.26 -0.78 0 -0.8202 0.26 -1.0202 -3.5 0 -1.4 0.5404 -0.72 6.8204 -1.56 1.66 -0.04 1.4198 -0.36 1.8198 3.8Z" stroke-width="1"></path><path id="Vector_55" fill="#e1edf2" d="M99.1528 205.622c0 0.96 0.72 0.72 -8.38 2.36 -0.62 0 -0.4002 -0.18 -0.6802 -4 0 -0.96 -0.7598 -0.56 6.5802 -2 2.8 -0.58 2.26 -1.14 2.48 3.64Z" stroke-width="1"></path><path id="Vector_56" fill="#e1edf2" d="M88.3534 256.682c0 0.12 -0.2004 0.26 -0.3404 0.36 -0.14 0.1 -0.1598 0 -0.2398 0 -6 0 -6.2402 0.2 -6.3202 -0.7 -0.24 -2.8 -1 -3.16 0 -3.16 7.7 0 6.8404 -0.8 6.9004 3.5Z" stroke-width="1"></path><path id="Vector_57" fill="#e1edf2" d="M85.6934 232.862c0 0.42 0.54 0.86 0.12 1.2 0 0 -6.2602 0.66 -6.2602 0.6 -1.4 0 -1.5202 0.24 -1.6402 -0.48 -0.62 -3.42 -0.3796 -3.4 0.2204 -3.46 6.96 -0.62 7.2798 -1.14 7.3598 -0.48 0.08 0.66 0.1802 1.8 0.2002 2.62Z" stroke-width="1"></path><path id="Vector_58" fill="#e1edf2" d="M83.5132 209.002c0 0.42 0.0004 0.44 -3.1396 1.12 -1.3318 0.414 -2.7302 0.57 -4.1202 0.46 -2 0 -1.7004 0 -1.8404 -3.88 0 -0.74 0.52 -0.54 8 -2 0.74 -0.1 0.5602 0 1.1002 4.3Z" stroke-width="1"></path><path id="Vector_59" fill="#ffffff" d="M324.632 278.622c-1.108 -7.212 -3.088 -14.264 -5.9 -21 -0.888 -1.536 -2.216 -2.77 -3.814 -3.544 -1.596 -0.772 -3.388 -1.05 -5.144 -0.796 -2.7 0.34 -2.2 -0.44 -6.48 0.44 -5.3 1.08 -9.742 4.56 -10.162 10 -0.366 2.654 -0.366 5.346 0 8 1.88 10.2 5.162 33.84 15.702 34 19.12 -1.68 19.078 -9.22 15.798 -27.1Zm-21.16 -9.76c-0.46 -4.54 -1.16 -8 3.52 -8 0.648 0.058 1.258 0.326 1.74 0.76 3.84 5.28 8.002 33.16 6.602 35.32 -1.3 1.44 -3.542 1.6 -3.882 1.06 -3.84 -6 -3.08 -7.08 -4 -9.52 -1.58 -4.14 -3.78 -19.62 -3.98 -19.62Z" stroke-width="1"></path></g><g id="Ink"><path id="Vector_60" fill="#000000" d="M105.1528 248.622c-0.34 -3.5 -2.5804 -1.76 -10.2404 -3.08 -1.4 -0.24 -1.74 1.58 -1.5 2.72 0.38 1.8 1.74 14.2 2 14.54 1.44 1.78 2.2204 1.56 7.2604 1.66 5.7 0.14 4.06 -0.42 2.48 -15.84Zm-9.84 2.22c-0.28 -3.42 -0.44 -4 0 -4 0 0 6.9 0.56 7.48 0.68 0.58 0.12 0.6198 0.26 0.6398 0.6 0.18 3.5 0.6602 3.56 -0.1598 3.56 -8.24 0.04 -7.7998 0.36 -7.9198 -0.84h-0.0402Zm0.7198 5.08c-0.34 -2.32 -0.3998 -2.5 0.2402 -2.5 8 0 7.6598 -0.16 7.7398 0.48 0.2214 1.122 0.3422 2.258 0.3604 3.4 -0.6968 0.188 -1.4196 0.264 -2.1402 0.22 -6.18 -0.14 -5.9002 0.22 -6.1602 -1.6h-0.04Zm8.2802 6.9c-0.5996 0.032 -1.2006 0.032 -1.8002 0 -5.26 -0.24 -5.44 0 -5.56 -0.88 -0.6 -4.18 -2 -3.08 7.04 -2.94 0.84 0 0.7398 0.38 0.9198 1.8 0.24 1.9 0.5806 2.02 -0.5594 2.02h-0.0402Z" stroke-width="1"></path><path id="Vector_61" fill="#000000" d="M122.0128 234.242c-0.34 -4.86 -0.8596 -3.82 -0.7196 -9.1 -0.16 -0.48 -0.36 -4 -0.5 -4.62 -0.4 -1.46 -2.5004 -1.28 -5.8804 -1.28 -6.1 0 -5.4 -0.2 -6.38 -0.14 -2.68 0.18 -1 4 -1.08 8.18 0 0.14 1.22 13.32 2 13.44 3.36 0.5 -0.6798 0.36 10.2402 0.62 0 0.14 3.0198 0.42 2.7598 -1.44 -0.26 -1.86 -0.32 -3.76 -0.44 -5.66Zm-2.3798 -9.8c0 0.42 -0.82 0.4 -3.5 0.66 -0.38 -0.24 -0.9398 0.4 -1.2398 0 0 0 -0.3002 -4.14 -0.3002 -4.2 0.0208 -0.086 0.0702 -0.164 0.14 -0.22 5.64 -0.18 4.42 -0.88 4.9 3.76Zm-5.1202 7.78c0 0.28 -0.3398 0.54 -0.3798 0.84 -0.44 2.5 0.0002 -0.72 0.1402 6.56 -2.98 0.2 -3.3802 0.34 -3.7002 -0.62 0 -0.14 -0.5798 -4 -0.7398 -4.58 -0.16 -0.58 0 -1.36 0 -2 -0.366 -1.524 -0.534 -3.09 -0.5 -4.66 0.18 -1.88 -1.2002 -7.28 -0.1602 -7.26 3.8 0 3.6998 -0.12 3.7998 0.8 0.58 5.48 0.22 4.66 2 5.66l0.2002 0c1.371 -0.3 2.761 -0.508 4.1602 -0.62 0.86 -0.12 0.64 0.32 0.96 4.52 0 0.58 -0.0002 0.6 -4.6402 0.78 -0.7 -0.06 -1.0202 -0.02 -1.1402 0.58Zm6.2804 7.78c-0.26 0.22 -0.8002 0 -1.2402 0 -3.6 0 -3.5002 0 -3.5402 -0.5 -0.44 -6.2 -0.8596 -6.42 0.2804 -6.5 3.74 -0.3 3.9996 -0.52 4.1196 0.28 0.2622 2.244 0.3896 4.502 0.3804 6.76v-0.04Z" stroke-width="1"></path><path id="Vector_62" fill="#000000" d="M210.512 177.1826c0.42 -2.52 -2.28 -1.7 -3.78 -1.42s-15.42 3.56 -17.66 3.66c-2.8986 0.3012 -5.7554 0.9182 -8.52 1.84 -0.56 0.46 -0.9998 0.9602 -0.7998 1.5602 0 0 -0.0002 20.7192 0.2198 22.3192 0.1 1.26 0.5404 2.7 1.8804 2.62 1.34 -0.08 23.5996 -2 25.3196 -2.7 0.92 -0.36 1 -0.48 0.96 -1.56 -0.04 -1.08 2.32 -26.1194 2.38 -26.3194Zm-28.1196 5.1202c2.82 -0.56 4.8196 -1.1 4.5396 -0.44 -0.0892 0.3122 -0.2576 0.5958 -0.4888 0.8238 -0.2314 0.2278 -0.5176 0.392 -0.8312 0.4762 -3 0.54 -4.22 1.34 -4 0 0.015 -0.21 0.0998 -0.409 0.2412 -0.565 0.1416 -0.1558 0.3316 -0.2598 0.5392 -0.295Zm-0.8604 23.1792c-0.1502 -0.886 -0.2302 -1.782 -0.2398 -2.68 -0.24 -12.6792 -0.88 -10.9392 3.02 -11.4192 0.52 0 0.52 0.24 0.5 0.48 -0.02 0.24 -3.0202 12.9992 -3.2802 13.6192Zm26 -13.2194 0 3.72c0 1.28 -0.64 6.3594 -0.58 7.3394 0.06 0.98 -2 0.38 -14.96 2 -0.6 0 -0.56 0.12 -0.56 -0.94 0.1 -0.58 2.4798 -12.2192 2.4798 -12.2592 0.52 -2 -0.3398 -1.74 9.0402 -1.08 5.06 0.46 4.58 0.1398 4.52 1.2198h0.06Zm0.62 -4.8598c-0.28 2.26 0 2.5998 -0.76 2.5398 -4.92 -0.36 -4.28 -0.1998 -12.5396 -0.8798 -0.4786 0.0888 -0.9214 0.3132 -1.276 0.6464s-0.6058 0.7614 -0.724 1.2334c-1.08 5.58 -2.7 9.3794 -2.98 13.1394 -0.16 2.3 -0.36 1.8 -6 2.18 -1.1 0 -0.76 -0.56 -0.48 -1.64 3.74 -15.0792 1.5396 -7.8192 3.1996 -12.9592 0.0986 -0.218 0.1372 -0.4584 0.1114 -0.6962 -0.0258 -0.2378 -0.1144 -0.4644 -0.2574 -0.6564 -0.1428 -0.1918 -0.3346 -0.3418 -0.5552 -0.4344 -0.2204 -0.0928 -0.4616 -0.125 -0.6986 -0.0932 -3.3 0.2 -3.7402 0.9 -3.7402 0.22 0 -5.66 -0.1998 -4.2398 1.3002 -4.6598 4 -1.08 5.7 -1.1802 6 -3.3202 0.16 -1.56 0.6998 -0.46 5.2198 -1.8 1.74 -0.52 0.9002 0.4 0.8202 1.8 -0.12 2 0.0002 1.78 13.0798 2.42 0.76 0.04 0.56 -0.0398 0.22 2.9602h0.06Zm0.74 -5.1202c-0.14 0.74 -0.36 0.68 -0.9 0.68 -12.22 0 -11.72 -0.7 -11.46 -2 0.1 -0.48 0.0004 -1.14 0.3604 -1.44 0.36 -0.3 0.96 -0.2 1.46 -0.3 9.7996 -2 10.7396 -2.66 10.7996 -1.74 0.016 1.6058 -0.09 3.2106 -0.32 4.8h0.06Z" stroke-width="1"></path><path id="Vector_63" fill="#000000" d="M236.092 327.262c-16.12 0.46 -21.44 -2.56 -38.9394 -5.26 -16.34 -2.52 -27.9998 -7.48 -38.8598 -3.5l-12.1202 2.84c-66.68 18.82 -53.4398 11.7 -62.9198 12.72 -0.6 0 -0.2202 0.82 0.3798 1.06 0.6 0.24 48.98 11.14 52 11.22 29.34 -4.1 42.18 -8 64.5994 -11.34 2.32 -0.36 34.78 -5.26 36.62 -6.78 0.3 -0.38 0.1 -1 -0.76 -0.96Zm-67.6196 -9c10.86 1.18 8.6604 0.94 8.4204 5.5 -0.52 10.22 -0.5 10.98 -2.54 11.42 -3.48 0.74 -5.74 1.54 -6 -0.34 -1.34 -13.46 -1.2 -12.5 -2 -14.36 -0.8 -1.86 -4.3202 -1.52 -4.2402 1.7 0 1.18 0.1002 1.32 -0.3198 1.48 -0.76 0.28 -0.7604 -2.78 -0.8004 -3.58 -0.04 -0.8 0.44 -0.88 7.48 -1.82Zm-19.04 24.12c-3.8 0.52 0.5802 0.12 -13.2998 2.26 -9.46 -1.34 -38.34 -7.58 -40 -8.62 0 0 45.0802 -11.7 46.2002 -12 16.18 -3.7 17.4196 -5.24 17.5796 -3.54 0 3.38 0.98 3.54 0 5.2 -2.56 4.82 -3.3798 10.52 0.3002 14.48 0.94 0.84 -2.8202 1.14 -10.7802 2.22Zm16 -2.58c-2 -0.1 -2.88 0.8 -3.44 0.14 -8.42 -10.24 4.32 -20 4 -14.98 0.18 0.68 -0.1396 1.08 -0.6996 1.56 -0.8388 0.978 -1.4338 2.14 -1.7364 3.392 -0.3024 1.25 -0.304 2.556 -0.0038 3.808 1 3.5 -0.0002 2.3 2.4198 5.44 0.42 0.48 -0.0396 0.66 -0.5796 0.64h0.0396Zm7.3604 -2.4c-0.48 1.16 -1.5002 1.1 -4.2202 1.68 -4.74 -0.74 -4.14 -11.36 -2.36 -11.2 0.64 0 0.18 4.16 0.94 7.12 1.16 4.7 6.4802 0.36 5.6002 2.4h0.04Zm1.48 0.76c-0.72 -1.3 0.76 -2 2.56 -2.84 0.6 -0.3 -0.0002 1.08 -0.2602 1.88 -0.26 0.8 -0.52 0.5 -2.34 0.96h0.0402Zm32.0992 -5.86c-19.1392 2.84 -28.6394 5.9 -28.1994 4.6 0.6 -8.82 -0.54 -3.82 0 -11.22 0.24 -4 0.2398 -4.72 0.3198 -5.1 0.26 -1.06 1.1802 0 16.7202 2.7 0 0 27.2394 4.48 29.7594 5.82 -0.7 0.56 -15.82 2.78 -18.64 3.2h0.04Z" stroke-width="1"></path><path id="Vector_64" fill="#000000" d="M350.712 269.322c6.46 25.26 -14.56 54.5 -44 52.32 -40.8 -3 -50.22 -50.2 -32.2 -68.22 11.12 -14 19.82 -14.14 24.5 -16 8.68 -3.6 31.22 -1.48 42.4 13.44 4.596 5.278 7.794 11.626 9.3 18.46Zm-1.22 10.56c0.24 -11.18 -5.16 -23.44 -10.4 -28.56 -2.318 -2.464 -4.848 -4.718 -7.56 -6.74 -31.12 -18.74 -64.28 5.72 -63.64 34.5 0.1 4.18 1.44 12.24 2.84 14.36 1.4 2.12 0.36 2.84 4 8 14 20.32 39.62 21.3 54.64 12.82 9.98 -5.54 19.78 -19.58 20.12 -34.38Z" stroke-width="1"></path><path id="Vector_65" fill="#000000" d="M303.154 122.4628c-0.18 2.16 -0.94 5.28 -2.94 6.14 -0.56 0.3736 -1.21 0.5878 -1.88 0.62 -3.8 -0.5 -5.76 -2.9 -4 -8.46 1.66 -4.94 8.38 -4.72 8.82 1.7Zm-1.54 1.2002c1.06 -5.52 -5.6 -7.6802 -6.42 0.3398 -0.44 3.9 5.1 6.2602 6.38 -0.3398h0.04Z" stroke-width="1"></path><path id="Vector_66" fill="#000000" d="M274.434 253.342c-0.12 -0.08 -0.02 -0.04 0 0Z" stroke-width="1"></path><path id="Vector_67" fill="#000000" d="M278.214 161.663c-8.1 1.42 -15.5 3.2998 -17.22 3.7598 -6.18 1.64 -4.82 0.42 -11.34 33.06 -0.28 1.4 1.38 1.9992 2.4 1.7392 1.7 -0.4392 17.06 -1.9992 17.5 -1.9992 0.44 0 0.36 0.38 -0.58 3.6192 -1.38 4.76 -1.06 4.72 -1.82 4.74 -3.3 0.12 -15.04 1.44 -16.64 1.48 -3.3 0 -3.08 3.34 -4.62 10.24 -4.28 19.36 -5.32 17.62 0 17.62 14.16 -0.76 10.82 -1.08 12.52 -0.98 2.8 0.18 2.48 -1.06 14.36 -41.3392 3.36 -11.38 6.24 -21.28 6.74 -23.24 1.48 -5.76 4.64 -9.7398 -1.3 -8.6998Zm-34.1 72.979c-0.58 0 -0.48 -1.26 0.52 -1.18 1.736 0.054 3.464 0.276 5.16 0.66 0.58 0.28 -1.5 0.2 -5.68 0.52Zm17.08 -7.28c-2 6.72 -1.46 6 -3.28 6.12l-0.38 0c-14.4 -1.56 -13.22 -1.66 -13.02 -2.64 1.72 -8.52 0.2 -5.22 7.44 -5.14 1.74 0 1.28 0.16 6.86 0.72 2.34 0.3 2.6 0.24 2.34 0.94h0.04Zm5.76 -19c0.2 0 -4.74 15.1 -5 16.36 0 0.64 -0.84 0.38 -8 -0.38 -8.28 -0.86 -7.7 -0.58 -7.58 -1.36 0.16 -1.22 0 0.42 2 -9.2 1.26 -6.22 0 -3.32 8.7 -5.02 1.16 -0.22 5.28 -0.4 7 -0.54 0.9 -0.08 3.18 -0.64 2.88 0.14Zm-4.46 -10.7792 -10 1.2c-1.78 0 -1.7 0.66 -0.8 -3.7 0 -0.38 0.22 -0.54 0.66 -0.38 0.44 0.16 18.26 1.02 18.26 1.4 -0.14 1.28 -2.28 0.56 -8.12 1.48Zm8.92 -4c-0.3 0.9 -0.42 0.76 -1 0.72 -18 -1.32 -18.7 -0.74 -18.36 -2.28 0.5 -2.24 0.62 -2.66 0.86 -4 0.38 -1.88 -1.68 -1.4798 19.48 -0.3798 0.76 0.16 0.76 0.62 -0.98 5.98v-0.0402Zm8.56 -29.64c-1.36 3.46 -3.14 10.2002 -5.28 17.2202 -1.7 5.62 -1.14 4.8998 -2.36 4.9198 -0.42 0 -14.64 -0.5998 -18.44 -0.9598 -0.62 0 -0.4 -0.0002 1.66 -8.8402s0.5 -8.18 9.08 -10.22c13.64 -3.2 15.98 -3.74 15.34 -2.02v-0.1Z" stroke-width="1"></path><path id="Vector_68" fill="#000000" d="M256.692 79.4028c1.02 0.12 1.42 1.3398 -1.26 2.2998 -6.8 2.42 -7 1.62 -7 2.48 0 0.86 0.68 9.72 0.44 12 -0.12 1.2 -1.5 0.7002 -2.12 -0.2998 -2.9 -4.82 -1.68 -4 -4.42 -7.6 -0.56 -0.74 0 -0.56 -6.2 2.62 -4.28 2.22 -5.1 1.38 -2.54 -2.3 4.42 -6.32 4.6 -5.7602 3.8 -6.4002 -1.5 -1.22 -4.56 -4.2998 -4.8 -4.5398 -2.34 -2.42 3.7 -1.46 8 -1.36 1.32 0 1.32 -0.0002 4.6 -4.8002 1.46 -2 1.6 -2.8198 2.36 -2.6398 0.192 0.053 0.36 0.1682 0.48 0.3274 0.12 0.1592 0.184 0.3534 0.18 0.5524 -0.12 6.78 -1.74 8.0002 1.06 8.5402 2.8 0.54 2.92 0.62 7.42 1.12Zm-8 2.8598c10.94 -2.4 4.84 -1.86 -1.42 -3.04 -1.1 -0.2 -1.26 -0.56 -0.6 -6.74 0.32 -3.02 -1.22 1.54 -4.1 4.78 -0.9 1.04 -7.18 -0.48 -8.48 0 1.462 1.4876 3.034 2.8648 4.7 4.1202 1.82 1.4 -1.46 3.0998 -4.8 8.8598 -0.54 0.94 7.24 -3.78 7.44 -4 0.68 -0.44 1.22 -0.2998 1.84 0.6202 5.68 8.62 4.58 12.9398 3.84 -3.1602 0.04 -1.66 1.62 -1.2 1.62 -1.44h-0.04Z" stroke-width="1"></path><path id="Vector_69" fill="#000000" d="M250.932 244.482c7.7 -0.12 7.6 -4 1.22 18.32 -0.26 0.92 -1.6 6.52 -2.68 6.7 -1.08 0.18 -13.44 0.72 -13.4 -0.26 0 -2.5 4 -23.38 4 -23.58 0.34 -1.74 2.8 -1.06 10.86 -1.18Zm3 7.06c2.18 -7.7 2.52 -6 -2.5 -5.6 -1.156 0.002 -2.31 -0.058 -3.46 -0.18 -8.54 0 -6 -0.44 -7.18 3.86 -0.84 3 -1.58 9.62 -1.76 10.76 0 0.3 -0.32 0.34 4.42 1 7.44 1.02 7.3 1.08 7.48 0.54 1.06 -3.4 2.66 -9.16 3 -10.38Zm-3.74 13.06c0.32 -0.94 -0.7 -0.6 -10.94 -2.12 -0.9 -0.12 -0.7 0 -1.54 4.24 0 1.82 0 1.38 4.72 1.44 0.666 0.066 1.336 0.066 2 0 4 -0.78 3.8 2.02 5.76 -3.56Z" stroke-width="1"></path><path id="Vector_70" fill="#000000" d="M251.152 349.902c-0.24 2.36 -1.68 3.74 -2.28 3.76 -0.684 -0.014 -1.344 -0.252 -1.878 -0.68 -0.536 -0.426 -0.916 -1.016 -1.082 -1.68 -0.046 -0.832 0.186 -1.654 0.66 -2.34 0.476 -0.684 1.164 -1.192 1.96 -1.44 0.328 -0.016 0.658 0.034 0.966 0.144 0.31 0.112 0.594 0.282 0.838 0.504 0.244 0.22 0.44 0.488 0.582 0.784 0.14 0.298 0.218 0.62 0.234 0.948Zm-3.06 2.42c1.72 0.48 2.7 -3.84 0.5 -3.64 -0.432 0.122 -0.812 0.384 -1.076 0.748 -0.266 0.362 -0.4 0.804 -0.384 1.252 0.02 0.36 0.5 1.64 0.96 1.64Z" stroke-width="1"></path><path id="Vector_71" fill="#000000" d="M240.294 169.163c-13.56 2.76 -22.24 2.3 -22.98 6 -0.12 4.66 -2 18.4198 -2 19.6198 -0.16 2.66 -0.262 6.2792 -0.302 6.3392 -0.32 0.6 -0.718 3.38 1.282 3.3 2 -0.08 25.46 -2.86 25.52 -2.88 0.88 0 1.38 -0.72 2 -2.879 0 -0.18 5.158 -27.32 5.178 -27.52 0.38 -4.02 -1.438 -3.48 -8.698 -1.98Zm-0.122 25.7596c-2 7.4594 -0.3 5.0402 -7.5 6.1194 -6.8 1.02 -3.68 0.3 -13.5 1.7l-0.838 -0.14c0.24 -1.08 0.238 -1.16 0.298 -1.36 2.26 -8.5992 2.002 -9.159 3.162 -8.839 0.12 0 7.438 0.6598 7.478 0.6598 12.28 0.72 11.28 0.3598 10.9 1.8598Zm2 4.2802c-0.22 1.1792 -1.998 1.1792 -1.838 0.3 0.48 -1.86 1.28 -4.4798 1.56 -5.3598 0.86 -2.94 -5.04 -1.6802 -20 -3.2002 -0.594 -0.0246 -1.18 0.146 -1.668 0.4856 -0.486 0.3394 -0.85 0.8292 -1.034 1.3944 -3.72 14.5192 -2.98 10.7192 -2.48 4.72 2 -23 1.622 -22.76 2.682 -22.96 0.992 -0.4022 2.034 -0.6648 3.098 -0.78 0.92 0 2.12 -1.18 1.62 0.68 -2.58 9.46 -2.16 8.54 -2.52 9.26 -0.16 0.3 -0.22 1.62 0.98 1.5 0.48 0 20.182 1.2 20.722 0.62 1.42 -1.48 0.68 0 2 -4.34 0.06 -0.1364 0.148 -0.2588 0.258 -0.3598 0.22 0.88 0.06 0.0198 -3.3 18.0398h-0.08Zm1.42 -17.2802c-0.76 2.58 -0.558 2.8404 -1.298 2.7404 -1.84 -0.24 -4 0 -12 -0.52 -7.48 -0.46 -7.222 -0.2802 -7.042 -0.9402 2.8 -10.36 2.282 -10 3.102 -10.14 0.2 0 18.758 -3.34 19.418 -3.32 1.72 0.06 1.86 -1.2602 -2.1 12.1798h-0.08Z" stroke-width="1"></path><path id="Vector_72" fill="#000000" d="M240.734 209.502c-0.5 -0.258 -1.064 -0.362 -1.622 -0.3 -3.1 0.64 -4.6 0.52 -8.98 1.02 -19.9 2.32 -15.54 -2 -17 9.84 -2 16.38 -3.82 18 1.04 17.66 23.78 -1.28 22.52 -0.22 23 -4.94 0.24 -2.14 1.142 -4.9 3.182 -15.72 1.18 -6.2 1.62 -7.02 0.38 -7.56Zm-26.182 10c0.064 -1.86 0.32 -3.71 0.762 -5.52 0.2 -0.78 0.3 -1.16 1.04 -1.22 18.66 -1.08 19.498 -2.2 19.158 -0.82 -0.82 3.14 -1.12 4.44 -2.6 9.48 -0.28 0.96 0.98 0.82 -11.76 -0.5 -7.04 -0.7 -6.64 -0.48 -6.6 -1.4v-0.02Zm15.46 12.98c-0.78 2.82 -0.66 3.08 -1.46 3.12 -3.04 0.18 -15.3 0.72 -15.34 0.72 -1.14 0 -0.76 -0.22 0 -6.5 0 -0.62 0.16 -0.58 3.72 -0.14 14.48 1.82 13.42 1.56 13.08 2.82v-0.02Zm6.14 -2.84c-1.24 5.46 0.1 6.12 -4.5 5.68 -0.82 0 -0.738 -0.4 -0.338 -1.76 0.138 -0.654 0.38 -1.282 0.718 -1.86 0.56 -0.82 -0.138 -1.74 -1.258 -1.84 -4.022 -0.278 -8.028 -0.758 -12 -1.44 -5.52 -0.74 -5.222 -0.32 -5.182 -1.2 0.04 -0.88 0 1.22 0.48 -4.5 0.12 -1.28 0 -1.02 11.42 0.18 9.72 1 8.1 3.06 11.66 -11.22 0.2 -0.84 0.702 -0.84 2.242 -1.04 1.54 -0.2 -3.242 18.82 -3.242 19.02v-0.02Z" stroke-width="1"></path><path id="Vector_73" fill="#000000" d="M231.472 259.042c-0.002 0.908 -0.096 1.812 -0.28 2.7 -1.3 6.64 -0.9 7.7 -3.66 7.84 -1.82 0 -15.48 -0.26 -16 -0.3 -4.22 -0.3 -3.58 -1.74 -3.04 -9.08 0.2 -2.76 0.54 -6.76 1 -10 0.98 -7.16 -3.12 -4.66 20 -5.38 7.44 -0.32 4.98 -0.78 1.98 14.22Zm-3.22 -12.84c-0.88 0 -3.02 13.18 -4.68 13.62 -2.14 0.6 -1.02 0.38 -9.52 -0.76 -3.54 -0.48 -4 -0.76 -4 0.56 0 7.56 -2.3 3.74 10.74 7.04 2.18 0.56 1.64 1.16 3.06 1.18 3.74 0 4.44 0.28 4.74 -1.02 0 -0.1 2.66 -14.4 4.1 -20.14 -0.04 -0.82 0.58 -0.88 -4.44 -0.48Zm-2.14 0.88c0.38 -1.46 -0.96 -0.62 -3.18 -0.94 -2.7 -0.38 -6.46 0.22 -11 0.24 -0.84 0 -0.68 -0.18 -1.16 4.22 -0.05 1.548 -0.196 3.092 -0.44 4.62 -0.46 2.28 -0.2 1.72 11.38 3.24 1.72 0.1 0.94 1.4 4.4 -11.38Zm-8.46 20.5c0.2 0 1.88 -0.44 -7.36 -1.44 0 0 -0.378 0 -0.418 0.22 -0.98 1.86 3.518 0.64 7.778 1.22Z" stroke-width="1"></path><path id="Vector_74" fill="#000000" d="M226.434 29.3828c0.8 0.62 0.4 2.3198 -0.74 1.5598 -1.14 -0.76 -2.32 -2.26 -4.24 -0.96 -3.2 2.18 -4.64 2 -6 0 -0.54 -0.8 0.58 -1.3998 0.94 -0.8598 2.36 3.36 4.28 -4.24 10.04 0.26Z" stroke-width="1"></path><path id="Vector_75" fill="#000000" d="M216.974 48.3228c0.88 0.3 2.38 0.7798 2 1.7198 -0.5 1.5 -1.46 0.1802 -2.44 -0.1598 -4.28 -1.46 -1.38 -7.0002 -3.44 -7.1202 -0.26 0 -1.04 -0.38 -0.8 -0.78s0.34 -0.3798 0.82 -0.4198c3.76 -0.3 1.32 5.94 3.86 6.76Z" stroke-width="1"></path><path id="Vector_76" fill="#000000" d="M214.352 10.04272c0.178 0.10934 0.324 0.26226 0.426 0.44432 0.102 0.18208 0.154 0.38724 0.154 0.59572 -1.1 4 -0.9 4.66 -4.84 6 -1.46 0.5 0.64 2.24 -0.44 3.00004 -0.16 0.0856 -0.348 0.1082 -0.526 0.064 -0.176 -0.0444 -0.332 -0.15258 -0.434 -0.30404 -0.32 -0.34 -0.4 -0.58 -0.58 -2 -0.18 -1.42 0.2 -2.20008 2 -2.58008 3.74 -0.66 2.44 -5.77996 4.24 -5.21996Z" stroke-width="1"></path><path id="Vector_77" fill="#000000" d="M210.854 29.3828c2.14 10.58 -12.1408 12.76 -14.0008 2.76 -0.98 -5.24 4.8208 -10 10.3208 -7.78 0.916 0.5484 1.716 1.2752 2.348 2.1374 0.632 0.8624 1.084 1.8424 1.332 2.8826Zm-1.882 4.7c0.444 -0.9532 0.682 -1.989 0.702 -3.04 -2 -10.12 -11.581 -5.52 -11.581 0.24 0.0402 0.958 0.3098 1.8926 0.7856 2.725 0.4758 0.8326 1.1434 1.5388 1.9494 2.0598 0.804 0.521 1.722 0.8416 2.678 0.9346 0.954 0.0932 1.916 -0.0438 2.808 -0.3994 2.4 -1.04 2.838 -2.72 2.658 -2.56v0.04Z" stroke-width="1"></path><path id="Vector_78" fill="#000000" d="M204.374 246.222c0.2 0.52 -0.58 1.76 -0.2 4 0 0.62 -1 10.38 -1.04 10.5 -0.12 0.56 0 7.54 -1.26 8 -3.6402 1.06 -1.8 0.32 -6.0002 0.42 -3.1406 0.102 -6.2846 -0.052 -9.4004 -0.46 -4.44 -0.38 -5.7398 -0.16 -5.7198 -2.2 0 -12.12 -0.14 2 0 -18.9 0 -1.46 0.5002 -1.34 5.6402 -1.26 3.22 0 7.7798 -0.62 9.3198 -0.66 2.3 0 4.6004 0 6.9004 -0.24 0.96 -0.24 1.48 0.06 1.76 0.8Zm-2 0.58c-1.02 -0.26 0.44 0 -3.8006 0.14 -0.98 0 -0.6002 -0.62 -2.6602 7 -0.9 3.28 0.0004 2.54 -13.2396 0.62 -0.74 0 -0.5 0.36 -0.48 5.06 0 0.78 -0.22 0.42 8.96 1.76 3.06 0.44 2.5202 0.58 1.2202 5.16 -0.24 0.88 -0.2604 0.72 6.1996 0.82 3.4206 0 2.9206 -1.8 4.1406 -18.88 0 -1 0.44 -1.48 -0.42 -1.68h0.08Zm-7.8606 6.5c1.86 -6.5 2 -6.36 0.98 -6.32 -4.2082 0.566 -8.4554 0.788 -12.6998 0.66 -1.04 0 -0.6202 0.5 -0.7602 4.72 0 0.96 0.5402 0.84 5.6602 1.56 6.96 0.98 6.2198 1.14 6.7398 -0.62h0.08Zm-3.6796 13.44c0.98 -2.86 1.0996 -3.46 0.1196 -3.64 -11.48 -2 -8.2396 -1.6 -8.5796 2 -0.2 2 0.92 1.84 6.48 2 0.76 0.06 1.7198 0.14 1.8998 -0.36h0.0802Z" stroke-width="1"></path><path id="Vector_79" fill="#000000" d="M203.612 45.2026c-0.88 0.24 -2.52 1.28 -1.9 2.14 1.18 1.58 -0.36 2.28 -1.36 3.36 -0.9992 1.08 -1.5194 2 -2.1594 2 -0.64 0 -1.0598 -1.4798 0.1002 -2.5598 1.7392 -1.6 2.1392 -1.7802 1.7592 -2.4002 -0.8394 -1.32 0.28 -2.26 1.44 -3.36 1.66 -1.38 3.4 0.46 2.12 0.82Z" stroke-width="1"></path><path id="Vector_80" fill="#000000" d="M206.952 213.862c0 -2 -1.118 -1.26 -8.839 -0.8 -18.68 1.12 -18.18 1.12 -18.14 2.76 0.18 8.36 -0.2998 6.98 0.2002 15.1 0.76 12 -2.32 7.16 22.0008 7.16 2 0.26 2.92 -0.96 3.16 -2.74 0.52 -3.3 1.818 -17.98 1.618 -21.48Zm-17.999 1.66c0.16 -0.66 0.6002 -0.52 1.2802 -0.54 15.4808 -0.64 15.0408 -1.4 14.8408 -0.48 -1.14 5.36 -1.122 4.56 -2.642 4.56 -16.039 -2.14 -14.2586 -0.22 -13.5586 -3.54h0.0796Zm9.56 21.28c-6.8 -0.26 -14.58 1.48 -14 0 0.725 -2.336 1.313 -4.714 1.7602 -7.12 1.28 -4.76 -0.8198 -4.3 4.5602 -3.56 12.0006 1.66 10.5606 1.26 10.5606 2 -2.6806 8.9 -2.241 8.72 -2.961 8.68h0.08Zm2.801 0c-0.48 0 -0.7 -0.32 -0.52 -0.94 2.7 -9.44 2.52 -9.24 1.34 -9.5 -0.36 0 -10.441 -1.58 -14.541 -2 -0.6146 0.088 -1.184 0.372 -1.621 0.812 -0.437 0.442 -0.7174 1.014 -0.7988 1.628 -2.12 10.94 -2.18 10.82 -2.88 10.76 -0.7 -0.06 -0.9598 -20 -0.9598 -20.82 0 -1.54 0.1594 -0.74 5.5794 -1.36 0.56 0 0.4402 0 0.1202 2.24 -0.32 2.24 15.501 2.9 16.781 2.9 1.28 0 1.278 -0.64 1.658 -1.1 0 0.14 -1.058 13.34 -1.298 15.9 -0.2 1.38 -1.56 1.64 -3.02 1.48h0.16Z" stroke-width="1"></path><path id="Vector_81" fill="#000000" d="M194.6526 19.90294c1.24 0.24006 1.0402 1.18006 0.7402 3.24006 -0.0286 0.1728 -0.1182 0.3298 -0.2518 0.443 -0.1338 0.1134 -0.3034 0.1756 -0.4786 0.1756 -0.1752 0 -0.3444 -0.0622 -0.478 -0.1756 -0.1336 -0.1132 -0.2232 -0.2702 -0.252 -0.443 0 -1.82 0.6402 -1.4202 -1.3798 -1.8802 -3.14 -0.72 -2.4198 -3.17992 -2.1998 -6.41992 0 -0.94 1.42 -1.16 1.48 0 0.22 4.76 -1.1602 4.30006 2.8198 5.06006Z" stroke-width="1"></path><path id="Vector_82" fill="#000000" d="M189.6728 31.643c0.62 -0.34 2.3598 -0.3002 2.2998 0.4198 0 0.2 -0.2996 0.96 -0.6996 0.96 -1.28 0 -0.84 0.54 -4.98 1.46 -1.68 0 -3.4002 -1.3 -4.8002 -1.2 -0.3 0 -0.66 -0.48 -0.96 -0.78 -0.3 -0.3 0 -0.24 0 -0.32 0.74 -1.02 2.5598 -0.22 3.8798 0.24 0.8724 0.3178 1.8106 0.413 2.729 0.2768 0.9186 -0.1362 1.7886 -0.4992 2.5312 -1.0566Z" stroke-width="1"></path><path id="Vector_83" fill="#000000" d="M184.5926 124.9826c0 1.16 -0.4798 1.3402 -7.8198 2.1802 -1 0.12 0.4398 11.2798 -2.1802 8.6998 -2 -2 -3.6798 -7.14 -4.7798 -6.78 -2.74 0.9 -9.1204 3 -7.8804 0.24 1.0636 -1.426 2.2408 -2.7638 3.52 -4 1.36 -1.18 0.32 -0.84 -2.5 -5.28 -0.6 -0.92 -0.28 -1.86 0.54 -1.86 1.8 0.38 6 1.5 6.44 1.66 0.98 0.36 4.2402 -6 5.1602 -7.34 0.36 -0.9 2.0002 -1.1 1.6802 1.12 -0.86 7.04 -1.04 8 -0.42 8.12 8.48 2.5 8.1998 2.72 8.2398 3.24Zm-8.6802 0.96c9.02 -0.88 7.1002 -0.7 1.6602 -2.34 -3.2 -0.96 -3.4002 -0.4798 -3.1202 -2.1998 1.6 -9.7 1.8004 -8.4402 -2.5996 -1.1202 -0.64 1.08 -1.0602 1.32 -2.1802 1.02 -1.12 -0.3 -5.2198 -1.68 -5.2798 -1.52 -0.2 0.56 2.5798 3.56 3.1398 4 0.56 0.44 0.8202 0.7 -0.3198 1.74 -1.76 1.58 -4.5204 4 -3.2804 3.7 4.52 -0.9 6.4404 -2.92 7.4404 -1.5 0.72 0.86 2.9996 6.18 3.5596 6.3 0.42 -3.6 -0.44 -7.98 0.98 -7.98v-0.1Z" stroke-width="1"></path><path id="Vector_84" fill="#000000" d="M174.793 247.442s0.7598 13.4 0.8998 17.7c0.053 0.372 0.0192 0.748 -0.0986 1.104 -0.1176 0.354 -0.316 0.678 -0.5796 0.944 -0.2636 0.264 -0.5852 0.466 -0.9394 0.586 -0.3542 0.12 -0.7318 0.156 -1.1026 0.106 -3.68 -0.4 -15.7998 -0.24 -17.8598 -1.5 -1.04 -0.64 -0.44 -2.38 -0.92 -4.82 -0.0634 -1.824 -0.2574 -3.642 -0.58 -5.44 -0.0912 -0.75 -0.0912 -1.508 0 -2.26 -0.36 -8.14 -1.3398 -7.38 7.1602 -7.38 0 -0.16 12.6798 -0.16 12.7998 -0.18 0.46 -0.1 1.0802 0.54 1.2202 1.14Zm-1.04 18c0.16 -5.12 0.2396 -4.4 0.2196 -5.14 0 -2.36 -0.2596 -9.7 -0.6996 -8.38 -0.78 2.38 -1.7 2 -4.96 2 -7.3 0 -8.3402 0.78 -7.7002 -4.3 0 -2.12 0.2598 -1.68 -4.1402 -1.66 -1.3 0 -1.36 0 -1.5 1.38 -0.46 4.16 1.06 10 1.44 15.66 0 0.68 0.7004 0.38 2.8604 0.28 1.32 0 0.84 0 1.04 -4.44 0 -2.14 2 -1.88 4 -1.86 0.52 0 4.7598 0 5.2398 0.22 0.4962 0.174 0.9046 0.534 1.1366 1.006 0.232 0.472 0.2694 1.016 0.1036 1.514 -0.34 0.86 -1.3802 4.22 -0.2002 4.26 2.96 0.06 3.1402 0.62 3.1602 -0.58v0.04Zm-1.0602 -17.36c-3.5408 -0.42 -7.1192 -0.42 -10.66 0 0 5 -1.18 4.6 4.68 4.52 5.48 -0.1 4.96 1.44 5.98 -4.56v0.04Zm-5.1802 12.14c-7.22 0 -5.8198 -0.3 -5.8398 4.86 0 0.86 4.6802 0.66 6.1402 0.7 0.82 0 0.9196 -0.18 1.5996 -3.76 0 0.2 0.64 -1.82 -1.9 -1.84v0.04Z" stroke-width="1"></path><path id="Vector_85" fill="#000000" d="M173.813 327.742c1.24 0.44 1.8796 2 0.6396 4.26 -0.1804 0.286 -0.4296 0.52 -0.725 0.684 -0.2956 0.162 -0.6276 0.248 -0.965 0.248 -0.3372 0 -0.6688 -0.086 -0.9642 -0.248 -0.2956 -0.164 -0.5452 -0.398 -0.7256 -0.684 -0.2904 -0.448 -0.4452 -0.97 -0.4458 -1.506 -0.0008 -0.534 0.1528 -1.058 0.4418 -1.508 0.2892 -0.448 0.7018 -0.806 1.1886 -1.026 0.4866 -0.222 1.0268 -0.298 1.5556 -0.22Zm0.0996 2c0 -1.52 -1.9996 -1.1 -2.1596 0.6 -0.16 1.7 2.1796 2.08 2.1596 -0.64v0.04Z" stroke-width="1"></path><path id="Vector_86" fill="#000000" d="M172.1328 239.482c-6.56 0 -4.9398 0.56 -11.7798 0.7 -8.56 0.2 -7.2202 2.78 -7.8202 -6 -0.14 -1.9 -0.1 0 -0.48 -7.88 -0.62 -12.64 -3.4198 -8.36 19.6602 -11.12 2.44 -0.3 2.6796 2 2.7196 4.12 0.32 17.7 1.1802 20.18 -2.2998 20.18Zm-6.96 -0.98c8.76 -1.18 8.4 1.66 8 -6.18 -0.18 -4.14 -0.12 -4.14 -0.64 -4.1 -3.54 0.24 -9.42 0.86 -9.48 0.86 -0.86 0 -0.6998 8.88 -0.6798 9.3 0.02 0.42 1.4398 0.3 2.7798 0.12h0.02Zm2.94 -11.28c6 -0.46 4.96 1.16 4.9 -6.16 0 -0.82 0.38 -0.72 -5.36 0 -7.26 0.86 -6.4198 1.34 -6.3798 -2.62 0 -0.98 -1.02 -0.28 -2 -0.34s-1.8804 0.2 -2.8404 0c-0.96 -0.2 0.0002 1.8 -0.9398 2.8 -0.62 0.64 0.5002 0.64 -1.1398 1.44 -0.34 0.18 -1.1 0.2 -0.98 0.62 0.34 1.32 -0.0002 4.5 0.2398 7.48 0.1 1.56 0.22 -0.12 0.9 7.44 0.14 1.64 1.18 1.18 5.62 0.88 0.92 0 0.6 0.86 0.9 -8.76 0.12 -2.76 0.62 -2.28 7.08 -2.78Zm2.52 -8c2.64 -0.32 2.38 0 2.36 -1.82 0 -0.7 -0.28 -0.9 -0.98 -0.78 -7.48 1.28 -9.2598 0.12 -9.1398 1.78 0 2.04 -1.0202 1.92 7.7598 0.88v-0.06Zm-16.3798 0.36c0 -0.54 -0.0002 -1.22 -0.2602 -1.28 -0.98 -0.18 -0.8198 1.24 -0.6398 2.22 0.0358 0.088 0.0926 0.166 0.166 0.224 0.0736 0.06 0.161 0.1 0.254 0.116 0.52 0.08 0.46 -0.82 0.48 -1.22v-0.06Z" stroke-width="1"></path><path id="Vector_87" fill="#000000" d="M173.4724 189.3026c0.12 19.5994 0.8202 16.6794 0.1602 18.4194 -0.42 1.18 -0.82 0.92 -7.48 1.5 -2.58 0 -13.7198 1.88 -14.2798 0.92 -0.3824 -0.436 -0.6386 -0.968 -0.7402 -1.54 -0.34 -4.38 -0.14 -6.86 -0.5 -11.2794 -0.4302 -2.866 -0.5172 -5.7732 -0.2598 -8.6598 0.7 -3.18 6.88 -2.5202 12.9 -4.2402 0.92 -0.26 6.52 -1.3598 7.56 -1.5398 0.262 -0.0778 0.5382 -0.0934 0.8072 -0.0458 0.269 0.0478 0.5234 0.1576 0.7426 0.3206 0.2194 0.163 0.3978 0.3748 0.521 0.6186 0.1232 0.244 0.1878 0.5132 0.189 0.7864 0.06 1.48 0.3598 3.48 0.3798 4.74Zm-1.7196 17.9994c1.3 -0.12 0.58 -0.54 0.56 -3.48 0.0836 -3.22 -0.0634 -6.4408 -0.44 -9.6394 0 -0.52 -0.14 -0.6398 -0.56 -0.5398 -8.66 1.84 -7.9 1.2998 -8 3.1398 0 4.6194 -0.1802 3.4594 -0.2202 10.7394 0.06 0.74 8.8602 -0.06 8.6602 -0.26v0.04Zm0 -19.0794c0 -0.46 -0.1402 -0.5998 -0.6202 -0.5598 -2.3738 0.296 -4.7304 0.7164 -7.06 1.2598 -2.22 0.68 -2 0.36 -2 -1.5 0 -1.3 -0.5598 -0.8 -5.3398 0 -0.6 3.18 -0.14 2.58 -2.9 3.32 -2 0.54 -2.5204 0.54 -2.3804 1.36 0.62 3.54 -0.1398 4 1.0802 4 3.02 -0.42 1.9 -0.98 3.46 -0.26 0.86 0.4 0 1.72 0 9.6394 0 3.66 -0.1598 3.44 0.7002 3.38 2.64 -0.16 3.36 -0.44 4 -0.44 0.64 0 0.5398 0.2 0.8198 -8.28 0.24 -6.8392 -0.4398 -5.7194 8.3202 -7.4594 3.32 -0.78 1.76 -0.48 1.94 -4.5l-0.02 0.04Zm-7.48 -0.68c8.3 -1.6 7.3998 -1.16 7.2998 -2.68 0 -0.72 -0.4 -0.38 -4 0.36 -4.34 0.9 -4 0.58 -4 1.48s0.0402 0.92 0.7202 0.8l-0.02 0.04Zm-9.3204 1.04c0 -1.12 -0.2396 -0.8 -2.7596 -0.26 -1.38 0.28 -0.8804 1.74 -0.2604 1.6 2.8 -0.66 3.02 -0.42 3.04 -1.38l-0.02 0.04Zm-0.2396 10.66c0 -1.78 0.1798 -2.34 -0.7202 -2.14 -1.6 0.36 -2.12 0.32 -2 0.94 0.74 12.9994 0.38 11.1794 2.16 10.9794 0.7 -0.12 0.5602 -2.98 0.5802 -9.8194l-0.02 0.04Z" stroke-width="1"></path><path id="Vector_88" fill="#000000" d="M152.3132 370.722c-0.24 -5.38 6.28 -5.26 6 -1.14 -0.22 5.32 -5.82 5.18 -6 1.14Zm4.5996 -0.68c0.46 -2.86 -2.7598 -2.74 -3.1798 -0.14 -0.36 2.14 2.6398 3.48 3.1798 0.14Z" stroke-width="1"></path><path id="Vector_89" fill="#000000" d="M148.1726 254.482c-0.54 -6.5 -0.24 -7.38 -2.54 -7.62 -3.253 -0.176 -6.5142 -0.122 -9.7598 0.16 -9.16 0.68 -6.8004 -3.18 -6.4204 13.74 0 2 -0.3198 4.78 2.2402 4.68 1.46 0 2.5998 0.54 4.8398 0.46 14.32 -0.44 12.9802 4.84 11.6402 -11.42Zm-3.44 -6.54c0.9 0 1.6202 0.16 1.6202 1.1 0 2.14 0.5398 2.96 -0.1802 2.98 -4 0 -3.5002 0.58 -3.6402 -3.12 -0.04 -0.64 0.0602 -0.86 2.2002 -0.86v-0.1Zm-13.62 0.42c1.72 0 2 -0.24 2 0.64 0 2.24 0.58 2.92 -0.5 2.96 -0.54 0 -2.3198 0.18 -2.2998 -0.34 0.02 -0.52 -0.4202 -3.3 0.8398 -3.26h-0.04Zm2.3198 15.68c-0.5234 0.19 -1.0962 0.19 -1.6196 0 -0.72 -0.28 -0.8004 -0.4 -0.8004 -1.22 0 -2.1 -0.98 -3.1 0.44 -3.32 0.54 0 2.2402 0 2.2402 0.4 0.24 4.26 0.2198 3.94 -0.2602 4.14Zm8 -4.52c-0.0326 1.582 0.0278 3.166 0.1802 4.74 0 0.64 -0.14 0.44 -4.44 0.2 -1.82 0 -1.64 -0.36 -1.6 -1.1 0 -1.76 -0.34 -6.1 -2 -5.32 -0.716 0.176 -1.4638 0.176 -2.1798 0 -0.88 0 -0.6602 -0.28 -0.7802 -3.44 0 -1.06 -0.0002 -1.2 2.8398 -0.84 0.261 0.054 0.532 0.036 0.7832 -0.052 0.2512 -0.09 0.4732 -0.246 0.6422 -0.452 0.1688 -0.206 0.278 -0.454 0.3158 -0.718 0.038 -0.262 0.003 -0.532 -0.101 -0.778 -0.2366 -0.844 -0.3244 -1.724 -0.2598 -2.6 0 -1.06 0.3996 -0.86 3.0996 -0.86 4.12 -0.46 2.2802 -0.86 3.7002 4.66 0.36 1.44 5.0202 -0.12 5.1402 1.1 0.44 4.18 0.44 4.34 -0.42 4.26 -1.2 0 -2.38 0.14 -3.56 0.12 -0.66 0.1 -1.06 0.6 -1.42 1.08h0.0596Zm5.1 5.44c-4.14 0 -2.9798 0.34 -3.4798 -4.54 0 -0.84 0.3002 -0.58 3.7402 -0.52 0.62 0 0.5998 0 0.7798 4.12 0.0194 0.144 0.0028 0.288 -0.0484 0.424 -0.0512 0.134 -0.1356 0.254 -0.2452 0.346 -0.1094 0.094 -0.2404 0.16 -0.3812 0.188 -0.141 0.03 -0.2874 0.024 -0.4254 -0.018h0.06Z" stroke-width="1"></path><path id="Vector_90" fill="#000000" d="M147.1526 238.502c0 0.88 0.5402 1.04 0.2402 1.44 -1.32 1.72 -10.7202 1.14 -17.3002 1.7 -0.4388 0.022 -0.872 -0.102 -1.2334 -0.35 -0.3616 -0.25 -0.631 -0.612 -0.7666 -1.03 0 -0.22 -1.2002 -13.62 -1.1802 -18.94 0 -1.02 0.18 -1.28 1.1 -1.62 1.5458 -0.45 3.1506 -0.666 4.7604 -0.64 2.48 0 9.6396 -1.84 12.1396 -0.86 1.64 0.64 1.4402 11.98 2.2402 20.3Zm-1.7402 -6.6c0 -1.7 -0.1 -1.3 -2.86 -1.08 -1.18 0 -0.5198 -0.52 -0.4798 7.58 0 1.26 -0.2402 1.26 2.9798 1.12 1.52 -0.08 0.1004 -1.86 0.2804 -7.62h0.0796Zm-0.88 -2.76c0.82 0 0.72 0.16 0.38 -5 -0.1 -1.46 -4.78 1.2 -5 -1.74 -0.22 -2.94 -0.2398 -2.82 -0.8398 -2.72 -5.14 0.9 -5.42 0.56 -5.4 1.3 0 2.64 0.18 2.74 -0.42 3.26 -1.18 1 -2.4802 0.76 -3.7002 0.96 -1.22 0.2 -0.9798 0.38 -0.9798 1.32 0 0.94 0.0002 4 0.7202 3.88 1.088 0.104 2.1854 -0.026 3.2196 -0.38 0.36 -0.18 1.6202 0.96 1.6402 1.7 0 2 -0.0002 -0.56 0.2598 7.42 0 1 0 0.88 2.62 0.88 0 0 2.2604 0 2.8204 -0.14 0.98 -0.1 0.82 0 0.54 -4.22 -0.54 -7.62 -0.1804 -5.96 4.0596 -6.52h0.08Zm0 -7.22c0.4 0 0 -1.32 0 -2 -0.16 -1.1 -0.7596 -0.5 -2.1796 -0.44 -1.04 0 -0.9404 0 -0.9404 1.26l0 1.18c0 0.56 0.3604 0.48 2.9604 0h0.1596Zm-12.6596 18.3c1.38 0 1.0398 -0.26 0.6998 -7.16 0 -1.28 0.0002 -1.28 -1.2798 -1.34 -3.44 0.58 -1.7402 -0.56 -1.7002 7 -0.16 2.06 1.4 1.46 2.12 1.5h0.1602Zm0.1796 -16.86c0.28 0 0.18 -0.38 0 -2.54 -3.32 -0.24 -3.64 -0.3 -3.56 1.38l0 0.84c-0.3 0.84 0.2604 0.66 3.4004 0.32h0.1596Z" stroke-width="1"></path><path id="Vector_91" fill="#000000" d="M143.912 197.7826c0 0.54 0.4 1.0802 0 1.6202 -0.0204 0.0786 -0.0204 0.1612 0 0.24 1.12 13.2792 4.0002 12.3392 -10.2598 13.3592 -8.52 0.6 -7.54 1.04 -8.1 -5.34h0.12c-1.64 -17.1392 -0.92 -15.1592 2.94 -15.9992 1.58 -0.34 10.3198 -2.2402 11.8798 -2.6802 1.56 -0.44 2.6404 1.24 2.9004 3.4 0.34 2.48 -0.0204 1.1 0.5196 5.4Zm-0.8198 12.6994c0.92 -0.14 0.56 -0.44 0.12 -5.08 -0.62 -6.2392 -0.2798 -5.9994 -1.3598 -5.8794 -2.18 0.42 -1.5 -1.22 -1.06 10.9394 0.04 0.98 2.3598 -0.22 2.3598 0.02h-0.06Zm-1.5602 -12.3594c1.32 -0.22 0.8804 -0.12 0.7404 -3.52 0 -1.34 -0.4404 -1.58 -1.7604 -1.14l-0.3198 0.14c-0.52 0.34 -1.46 -0.8798 -1.64 -1.4598 -0.18 -0.58 -0.3198 -0.96 -1.2998 -0.74 -5.06 1.16 -4.9604 0.9198 -4.8204 1.8198 0.14 0.9 0 1.38 -0.98 1.82 -2.76 1.28 -4.8998 0.26 -4.8198 2 0.2 4.3994 0.0002 3.9994 1.6602 3.7394 2 -0.4 2.6996 -0.76 3.6996 -0.5l0.5 0c0.62 0.84 0.4804 0.72 0.3204 3.32 0.34 6.3 0.1398 2.92 0.2998 6.88 0 1.32 0 1.18 4.1 0.82 1.76 -0.18 2 -0.2 2 -0.5 -0.42 -11.9994 -1.4202 -11.9994 2.3198 -12.7594v0.08Zm-0.8598 -6c0.86 -0.24 1.1402 -0.14 1.1202 -0.78 -0.02 -0.64 -0.56 -0.84 -1.48 -0.58 -0.56 0.16 -0.7402 1.64 0.3398 1.34l0.02 0.02Zm-9.48 19.7994c0.44 0 0.46 0.86 0 -9.88 0 -0.58 0.2198 -0.38 -3.7802 0.26 -0.56 0.1 -0.6996 0.3 -0.5596 2.16 0.6 7.6 0.6596 6.16 0.6796 7.1 0.02 0.94 0.4202 0.48 3.6202 0.3l0.04 0.06Zm-0.8798 -17.9996c0.8 -0.34 0.5798 -1.0798 -0.1402 -0.9198 -3.36 0.7 -3.58 0.2998 -3.58 0.9198 0 0.62 0.14 0.5802 0.52 0.5602l3.2002 -0.5602Z" stroke-width="1"></path><path id="Vector_92" fill="#000000" d="M123.6336 66.5028c4 -5.86 3.88 -5.32 4.62 -6.96 0.74 -1.64 -0.28 -2.38 -2 -1.72 -1.72 0.66 -4.74 2.34 -6.52 2.8 -0.44 0.12 0 0.5798 -3.48 -6.4402 -0.76 -1.54 -2.0002 -1.9998 -2.1802 -0.3998 -0.28 3.76 0.9 7.86 0 8.86 -2.0434 1.33 -4.175 2.5192 -6.3798 3.5598 -0.52 0.24 -0.52 0.6202 -0.46 1.1002 0.1 0.92 0.6998 0.92 2.8798 1.68 2.7 0.94 4.7202 0.82 4.7002 1.16 -0.3782 3.0522 -0.572 6.1244 -0.58 9.2 1.22 3.84 4.8198 -5.76 5.8598 -6.52 1.04 -0.76 4.5804 2 7.7404 2.98 1.18 0.38 1.9998 -0.3602 0.4798 -2.6202 -4.26 -6.16 -5.16 -6.0798 -4.68 -6.6798Zm-3.48 4.74c-1.14 0 -1.0198 0.3 -4.8198 7.12 -0.42 -1.54 1.2396 -7.52 0.6796 -9.1 -0.42 -1.24 -4.28 -0.92 -6.9 -2 0.26 -0.48 0.32 -0.1202 6 -3.3002 1.26 -0.72 -0.32 -9.62 0.38 -8.54s2.8 6.0002 2.96 6.2402c0.88 1.74 7.1602 -2.84 8.6802 -2.8 0.38 0.18 -1.3004 2.3198 -4.2204 6.5998 -0.7 1.02 -0.8398 1.82 -0.2998 2.48 1.6676 1.8688 3.173 3.876 4.5 6 -0.28 0.38 -5.5998 -2.6198 -6.9598 -2.6998Z" stroke-width="1"></path><path id="Vector_93" fill="#000000" d="M123.9726 258.922c0.36 4 0.96 5.04 0 5.78 0 0 -0.1998 0.2 -0.2998 0.22 -0.98 0 -1.88 0.78 -2.88 0.46 -0.8452 -0.068 -1.6948 -0.068 -2.54 0 -0.16 0 -0.32 0.14 -0.46 0 -1.382 -0.084 -2.7578 -0.252 -4.12 -0.5 -1.36 -0.42 -1.5604 0 -1.7604 -0.52 -0.2 -0.52 -0.6396 -0.76 -0.5996 -1.38 0.1 -1.88 -1 -10.34 -1.14 -12.46 -0.2 -3.08 -0.94 -3.84 2 -3.74 14.66 0.44 9.9998 0.24 11.3598 4.66 0.3078 2.482 0.4546 4.98 0.44 7.48Zm-1.88 4.82c0.88 0 0.6602 -0.74 0.6202 -3.66 0 -1.18 -3.3 -0.8 -4.46 -0.86 -0.76 0 -0.7002 0.14 -0.3202 4 0.04 0.36 0.56 0.38 4.16 0.52Zm0.4 -6.46c-0.28 -2.46 0 -4 -1.06 -3.78 -1.4576 0.12 -2.9224 0.12 -4.38 0 -1.5 0 -1.46 -1.02 -1.56 -1.58 -0.62 -3.64 -0.1798 -3.74 -0.7398 -3.56 -0.56 0.18 -1.8 -0.14 -2.6 -0.14 -1.38 0 -0.3202 0.94 0.4398 11.7 0.22 3.12 0.3402 3.38 0.6602 3.42 3.66 0.5 3.1398 0.76 2.7398 -2.74 0.28 -2.28 0.1802 -3.3 1.2402 -2.98 1.54 0.46 3.1598 0 4.7198 0.4 0 -0.2 0.66 0.26 0.54 -0.74Zm-0.56 -5.7c0 -0.98 0 -2.88 -0.96 -2.96 -4 -0.36 -4.2798 -0.44 -4.2198 0.34 0.34 3.5 -0.2202 2.98 2.7398 2.98 0 -0.14 2.44 0.28 2.44 -0.36Z" stroke-width="1"></path><path id="Vector_94" fill="#000000" d="M120.0134 211.182s-1.1 -13.5192 -1.04 -13.5392c0.58 -1.54 -0.36 -1.18 -0.48 -2.24 -0.34 -2.86 0.1202 -3.7 -1.8398 -3.78 -11.88 -0.42 -11.48 -2 -11.34 1.68 0 2 0 12.1792 0.38 16.3792 0.38 4.2 1.7602 4 4.7002 4.14 7.72 0.32 10.0796 0.96 9.6196 -2.64Zm-6.94 -18.2594c3.58 0.2 3.82 0 4 0.78 0.4 3.04 1.1 2.7202 -2.98 3.4402 -1.5 0.26 -1.34 0.28 -1.5 -1 -0.5 -3.44 -0.5198 -3.0602 0.5602 -3.2202h-0.0802Zm-1.6 12.4794c0.92 7.6 1.54 7.32 -2 6.92 -0.64 0 -1.6398 -0.2 -1.7398 -0.84 -0.671 -5.976 -1.0182 -11.985 -1.04 -17.9994 0.12 -1.1 0.5398 -0.92 2.2598 -0.8 2.62 0 1.26 -0.4398 2.56 5.6002 0.24 1.16 3.08 0.2 5.02 -0.12 0.78 -0.12 1.0802 -0.2602 1.2402 0.8198 0.76 5.0394 0.3798 3.3394 -5.3402 5.1394 -0.84 0.2 -1.14 -0.2 -0.96 1.28Zm6.62 7.16c-5.16 0 -4.1596 1.1 -4.7396 -5.84 0 -2 -0.98 -1.52 4.54 -2.54 0.36 0 0.2596 0.62 0.5596 5.44 0.16 2.42 0.46 2.96 -0.36 2.94Z" stroke-width="1"></path><path id="Vector_95" fill="#000000" d="M292.212 110.8428c-4 0.86 -4.18 1.7198 -6.74 4.3398 -1.62 1.68 -70 -0.4198 -71.56 -0.5998 -0.96 -2.68 -1.64 -4.38 -4.54 -5.3 -13.9992 -4.38 -18.2394 12.46 -12.2594 18.46 2 2 3.1594 1.38 2.8398 2.46 -0.54 1.78 -1.6198 6.2 -4.7598 15.64 -3.74 11.22 1.0598 6.66 -22.2402 12.4 -1.68 0.4 -13.4798 2.52 -18.3798 3.56 -2.28 0.48 -12.0998 -17.08 -10.7398 -38.46 0.9 -14 9.0796 -32.56 22.2196 -36.86 2.4 -0.78 0.84 -0.22 2.9 4.86 3.02 7.38 8.9204 8.98 11.8204 7.14 1.66 -1.06 1.7798 -2.4 1.4398 -4.94 -0.0922 -1.208 -0.433 -2.384 -1.001 -3.4544 -0.5678 -1.0702 -1.3506 -2.0118 -2.2992 -2.7656 -5.46 -4.68 -10 -2.56 -9.88 -4 1.16 -14.64 4.1604 -24.82 18.8204 -36 4.12 -3.16 5.1596 -3.5 4.6396 -4.44 -0.52 -0.94 -1.9998 0.16 -2.7998 0.76 -16.44 13.18 -20.4998 19.66 -22.3598 37.3 -0.26 2.54 0.4198 3.16 -0.7402 3.6 -7.14 2.7 -8.2802 4.82 -11.1802 6.98 -3.88 2.88 -12.0998 17.8798 -12.2198 24.8998 -0.738 4.0694 -1.1788 8.187 -1.3198 12.3202 0.7 7.18 1.2798 16.2 5.3398 25.56 4.06 9.36 8.1198 7.84 0.2798 9.2 -11.42 2 -22.7198 5.08 -27.3798 5.36 -1.12 0 1.1398 -4 1.3998 -11.4 2 -52 -45.4 -56.9202 -44 -53.2802 0.64 1.7 13.86 -2.7198 32 16.3802 9.06 9.56 11.84 31.3 9.54 43.28 -1.08 5.68 -0.8 5.4 -2.12 5.68 -49.54 10.72 -54.5398 9.06 -54.2598 14.96 0 2 0.24 4.8 2 5.64 0.38 0.18 8.9798 73.1792 11.7998 75.9992 1.1264 1.418 2.7492 2.354 4.54 2.62 6.1984 1.134 12.48 1.756 18.7804 1.86 7.78 0.28 44.0998 2.9 44.2998 2.92 7.18 0.52 24.0002 0.6 24.7402 1.7 4.4374 7.796 7.9606 16.078 10.5 24.68 0.2952 1.534 0.013 3.12 -0.792 4.456 -0.805 1.338 -2.0762 2.33 -3.5684 2.784 -16.64 6.14 -80.96 19.6 -96 24.76 -3.12 1.08 -7.5996 2.46 -5.0996 6.7 1.62 2.72 2.8598 1.62 2.8598 3.08s0.9402 7.04 1.1402 8.22c0.28 1.72 -2.2002 2.88 -2.7002 6.72 -2.1 16 16.3802 21.32 21.7202 10.38 1.52 -3.14 2.3198 -8 1.3598 -10 -0.78 -1.72 -0.42 -2 -0.16 -5.84 0.34 -5.24 -0.0002 -5.1 0.9198 -4.96 1.24 0.2 9.5 2 37 7.46 0.32 0 0.3204 0.3 0.3404 0.56 1.08 8.78 1.78 8.72 1.04 9.84 -1.8276 2.188 -2.8884 4.914 -3.02 7.76 -0.3588 4.548 0.9648 9.066 3.7198 12.7 8.18 9.66 23.5402 7.3 25.3002 -8.76 0.6 -5.5 -1.6402 -5.58 -1.2802 -8.56 0.1 -0.9 0.8198 -16 0.8598 -16.9 0.04 -0.9 63.3396 -12.12 63.3996 -12.12 7.68 -1.7 6 -3.04 6.86 3.1 0.32 2.54 0.9 3.1 0 4.44 -6.84 9.34 1.28 23.62 12.58 21.44 8.7 -1.68 10.6 -12.2 8.92 -16.42 -0.92 -2.28 0.22 -7.14 0.26 -13.1 0 -0.2 0 -6.78 1.28 -7.36 2.354 -1.562 4.274 -3.694 5.58 -6.2 5.68 -10 -7.1 -25.66 -14.12 -45.28 -0.54 -1.5 0.84 -0.42 2.52 -1.2 3.4 -1.62 4.76 -3.82 6.22 -8 8.62 -24.58 38.26 -124.3792 41.28 -131.9992 1.3 -3.28 1.52 -1.2 4.96 -4 2.254 -2.0736 3.848 -4.7658 4.58 -7.74 3.04 -13.12 -8.14 -16.5 -15.08 -15.02Zm-121.3192 -25.06c8.58 0 12.28 10.74 8.4 11.68 -3.36 0.58 -5.2004 -1.08 -6.7604 -3.44 -1.7954 -2.2568 -2.9182 -4.9742 -3.2396 -7.8402 -0.14 -0.6 0.68 -0.3998 1.6 -0.3998Zm115.5992 30.74c0.716 -1.4832 1.896 -2.692 3.362 -3.4428 1.466 -0.751 3.136 -1.0028 4.758 -0.7172 -2.33 1.5016 -4.184 3.6374 -5.342 6.1566 -1.16 2.519 -1.574 5.3164 -1.198 8.0634 0.292 1.5938 0.796 3.141 1.5 4.5998 0.88 2 1.44 1.54 1.9 2.24 0.76 1.1 -3.68 0.4202 -5.26 -2.1398 -0.584 -0.6918 -1.05 -1.4758 -1.38 -2.32 -0.63 -2.0716 -0.808 -4.2542 -0.522 -6.4004 0.288 -2.1462 1.032 -4.2058 2.182 -6.0396Zm-1.06 16.58c4.6 5.74 5.84 -4.3 -1.04 17.76 -0.64 2 -6.96 0.38 -35.12 1.44 -48.26 1.82 -47.24 1.04 -46.64 -1.22 0 0 6.48 -21.6 6.98 -21.82 4.26 -1.86 3.06 -4.3 4.82 -4 3.1 0.42 39.76 1.62 60.98 3.18 1.88 0.14 4.16 0.6 6.86 0.68 1.58 0 0.4 0.54 3.16 3.98Zm-3.8 -15.8c2.52 0 0 -0.4602 0 6.8798 -0.15 0.9106 -0.046 1.8452 0.3 2.7002 0.3 0.5 -73.64 -3.32 -73.84 -3.36 -2.52 -0.46 -2.36 -4 -1.14 -6 2.2 -3.32 5.28 -1.24 74.68 -0.22Zm-75.02 -6.84c3.56 0.46 4 0.7 5.5 4 0.4 0.84 -6.12 -0.88 -7.34 3.88 -1.04 4 0.92 6.3 2.42 6.46 4.78 0.5 4.64 0.3798 4.38 0.8798 -2.38 4.38 -13.6592 4.1204 -10.8 -9.2796 0.84 -4.1 3.94 -6.1802 5.84 -5.9402Zm-5.68 0.28c1.12 -0.6 3.1 -0.9 1.3 0.28 -2.182 2.1672 -3.4238 5.105 -3.4592 8.18 -0.4178 2.8262 0.3014 5.7028 1.9992 8 0.4 0.58 1.74 1.14 0.44 1.14 -7.1794 -0.56 -7.1396 -13.94 -0.28 -17.6ZM94.5926 367.942c-6.98 7.66 -20.38 0.46 -17.44 -12.26 0.3934 -1.624 1.2006 -3.118 2.3432 -4.338 1.1426 -1.22 2.5816 -2.122 4.1768 -2.622 1 -0.18 0.8198 1.12 0.8198 1.6 0.1108 0.346 0.0904 0.722 -0.057 1.054 -0.1476 0.332 -0.4118 0.598 -0.7428 0.746 -1.7 0.94 -2.4602 5.24 -2.2602 7.28 0.78 7.64 5.7802 10 9.7202 8 3.02 -1.58 2.1598 -3.7 3.3998 -4 1.24 -0.3 1.8 -1.12 2.4 -1.38 -0.0984 2.214 -0.9282 4.33 -2.3598 6.02v-0.1Zm-9.7398 -14c0.24 0.82 0.1198 2.38 0.3998 4.14 0.36 2.36 -0.2002 6.24 3.2598 6.3 2.68 0 3.6602 -0.58 3.7202 -0.34 0.44 1.84 -5.3802 4 -7.3002 0.88 -4.26 -7.18 -0.5196 -12.46 -0.0796 -11.02v0.04Zm12 -2.7c-1.04 12 0.2798 10.24 -7.6202 11.76 -2 0.38 -2.34 -1.58 -2.52 -5.44 0 -1.64 -0.6402 -5.28 -0.6802 -7.46 0 -3.24 -0.96 -6.84 -4 -6 -2 0.56 -1.7 2.38 -1.58 4.4 0 0.14 -0.24 0.2 -0.44 0.4 -1.12 1.12 -0.86 -4.48 -1.48 -7.04 0 -0.36 0.0004 -0.48 0.3204 -0.44 0.3046 -0.048 0.6152 -0.048 0.92 0 1.48 0.58 3.08 0.7 4.6 1.16 0.62 0.18 3.9996 1.44 11.1396 3.3 1.64 0.62 1.6402 0.38 1.2402 5.32l0.1002 0.04Zm62.2598 32.4c-11.2 13.18 -28.52 -4.38 -20.98 -17.1 3.18 -5.38 5.7998 -5.3 6.8598 -5.56 1.06 -0.26 0.74 0.96 0.92 2.76 0.12 1.26 -1.5598 0.58 -2.7998 4.12 -1.1802 3.33 -1.0802 6.98 0.2802 10.24 0.2656 1.342 0.8644 2.594 1.7418 3.644 0.8772 1.048 2.0044 1.858 3.2778 2.356 0.906 0.378 1.883 0.558 2.8642 0.524 0.9812 -0.034 1.9438 -0.278 2.8222 -0.716 0.8786 -0.438 1.6526 -1.06 2.2692 -1.824s1.0616 -1.652 1.3046 -2.604c0.14 -0.64 0.2002 -0.46 2.1602 -1.4 0.7316 -0.39 1.3092 -1.018 1.6396 -1.78 -0.1116 2.618 -0.9646 5.15 -2.46 7.3l0.1002 0.04Zm2.2402 -30.78c-0.22 1.22 -0.6202 14.2 -0.7602 16.5 -0.54 9.14 -0.7598 6.66 -8.7998 8.84 -5.66 1.54 -0.8802 -24 -8.5602 -23.08 -1.86 0.22 -3.6198 1.82 -2.8598 5.2 0.0406 0.192 0.0304 0.39 -0.0292 0.576 -0.0598 0.186 -0.167 0.354 -0.3112 0.484 -0.86 0.94 -1.0596 -2.68 -1.2596 -3.68 -0.7 -3.24 -0.6 -3.26 0 -3.26l1.7998 0c20.72 -2.14 20.88 -2.72 20.68 -1.62l0.1002 0.04Zm-17 22c-0.571 -2.33 -0.302 -4.788 0.7598 -6.94 1.66 -2.86 1.2398 0.6 1.7998 4.44 1.2 8.52 1.7402 8 8.2402 7.1 3.08 -0.56 -7.26 10 -10.9 -4.66l0.1002 0.06Zm109.0992 -17.86c-2 13.5 -21.02 10.48 -20.94 -4 0.014 -1.82 0.466 -3.61 1.32 -5.22 2.78 -5.18 5.46 -4.94 6.16 -5.14 0.7 -0.2 0.54 0.54 0.68 1.82 0.22 2 -1.26 0.42 -2.58 4.58 -1.48 4.62 0.18 11.36 4.34 13.02 0.74 0.32 1.538 0.484 2.344 0.482 0.806 -0.004 1.604 -0.172 2.34 -0.498 0.738 -0.324 1.402 -0.798 1.948 -1.39 0.546 -0.592 0.964 -1.292 1.228 -2.054 0.24 -0.94 0.26 -0.44 2.74 -2 0.58 -0.42 0.56 -1.2 0.32 0.34l0.1 0.06Zm-12.66 -9.18c0.22 0 0.48 4.5 1.1 8.32 0.62 3.82 4 2.56 6.6 2.22 2 -0.28 -6.86 8.62 -9.3 -4.42 -0.6 -2.68 0.5 -6.44 1.5 -6.18l0.1 0.06Zm12.9 -10c-0.66 17.56 -1.16 18.24 -3.48 18.68 -4.8 0.9 -5.22 1.22 -6 0.68 -2 -1.4 -1.1 -14.7 -3.36 -18.2 -0.24 -0.37 -0.574 -0.67 -0.97 -0.868 -0.394 -0.2 -0.834 -0.29 -1.276 -0.264 -0.44 0.026 -0.866 0.17 -1.234 0.414 -0.368 0.244 -0.664 0.582 -0.86 0.978 -0.84 2 0.74 3.46 -1.02 4 -0.26 0 -0.36 -0.92 -0.76 -3.66 -0.52 -3.42 -0.66 -2.58 7.76 -3.68 11.26 -1.74 11.26 -2.7 11.1 1.76l0.1 0.16Zm8 -20.72c0.4 14 -15.28 14.92 -24 16.84 -6.46 1.4 -83.9994 16 -88.4394 16.66 -15.12 2.52 -5.4402 2.9 -55.2602 -7.28 -8.52 -1.74 -18.8796 -2.72 -18.5996 -6.56 0.56 -4.28 2.3798 -3.34 12.3398 -6 40.96 -11.02 84.4598 -17.76 91.7998 -24.76 5.86 -5.6 -5.4798 -23.14 -6.7798 -28 0.346 -0.03 0.6942 -0.03 1.0402 0 6.54 0.78 3.9996 -0.48 8.6396 9.14 0.44 0.92 4 9.6 4 9.64 1.0548 2.436 1.2328 5.164 0.5034 7.716 -0.7294 2.552 -2.3208 4.774 -4.5034 6.284 -6.54 4.46 -6.8796 2.92 32.3396 9.48 33.18 5.54 32.36 6 35.7 4.32 1.324 -0.85 2.394 -2.042 3.098 -3.45 0.704 -1.408 1.016 -2.98 0.902 -4.55 -0.24 -6.44 -12 -28.46 -14.6 -34.7 -0.36 -0.84 1.1 -0.52 3.46 -0.18 4.54 0.68 4.26 0.62 4.5 1.18 8 19.6 14.26 29.68 13.68 34.06l0.18 0.16Zm-74.6194 -22.74c-8.66 -21.14 -9.34 -18.7 -6 -18.42 7.16 0.62 53.1594 2 54.3794 2 0.56 0 0.7 0.32 0.88 0.68 2.86 5.64 14 26.8 15.8 37.26 1.02 5.7 -2.66 7.76 -4 7.76 -6.5 0 -64.6794 -10.3 -66.3794 -10.3 -0.32 -0.16 0.5402 -0.64 1.1402 -1.08 2.5 -1.8 5.5398 -5.6 5.8198 -8.72 0.3546 -3.226 -0.28 -6.482 -1.8198 -9.34l0.1798 0.16Zm109.3994 -156.4192c-5.02 12.58 -37.3 123.6192 -41.56 131.8392 -5.6 10.76 -3.28 5.36 -53.38 5.4 -6.6596 0 -38.3194 -2.44 -44.9394 -2.92 0 0 -7.5202 -0.14 -8.1602 -0.2 -55.86 -5.36 -66.5198 -1.76 -70.1798 -6.86 -1.1174 -1.706 -1.7214 -3.698 -1.7402 -5.74 0 -0.2 -10.9196 -63.3794 -8.6396 -69.7794 0.76 -2 -2.3202 -0.7598 -2.7202 -1.5598 -3.58 -7.44 3.6998 -7.3 11.3798 -8.84 16 -3.2 33.5402 -6.62 40.1602 -8.28 2 -0.5 0 1.58 0.94 2.28 0.0798 0.0572 0.1704 0.0982 0.266 0.1202 0.0958 0.0218 0.1948 0.0244 0.2916 0.0078 0.0968 -0.0168 0.1896 -0.0526 0.2724 -0.1056 0.0828 -0.0528 0.154 -0.1216 0.21 -0.2024 1 -2 0.4998 -2.42 1.7398 -2.82 0.2 0 31.1804 -6.14 31.3804 -6.14 3.14 -0.86 1.8 1.58 6 4 0.38 0.22 1.1998 0.34 1.3598 0 0.16 -0.34 -4.74 -4.3802 -3.4 -4.7202 1.34 -0.34 27.2 -5.44 27.4 -5.5 13.86 -3.34 9.64 0.3402 16 -19.1998 0.76 -2.32 1.7194 -4.76 1.8794 -5.52 0.3 -1.36 0.24 -0.68 3.82 -1.5 1.68 -0.38 2.52 -1.1398 2.46 -0.2998 -0.06 0.84 -3.62 9.4998 -5.52 17.5798 -1.66 7.08 -3.3394 6.3 44.32 4.9 1.36 0 32.98 -0.6 34.92 0 -0.48 0.26 -25.66 6.36 -31.84 5.68 -22.5 0 -20.78 -1.14 -22.16 4.44 0 0.32 -0.2 0.46 -3.26 1.06 -3.06 0.6 -3.66 0.76 -3.46 0 0.88 -3.7 2.28 -5.6202 -1.9 -5.6402 -1.628 0.1654 -3.264 0.2124 -4.9 0.1402 -1.644 -0.1198 -3.296 -0.1198 -4.94 0 -11.3794 0 -7.72 -0.76 -11.0996 10.3 -0.26 0.9 -0.4796 1.04 -1.0796 1.16 -6 1.2 -5.6004 1.46 -5.4804 0.82 0.5288 -3.2532 1.2504 -6.4722 2.1602 -9.64 0.24 -0.44 -0.2202 -1.44 -1.5402 -1.14 -15.14 3.46 -25.82 4.32 -28.48 6.52 -0.98 0.8 -0.2396 0.88 -0.2796 1.8 -0.24 8.2 -0.0004 8 -0.8604 8.26 -1.0822 0.3964 -2.2008 0.6844 -3.3398 0.86 -1.26 0.22 -1.7198 0.48 -1.7398 -0.5 0 -0.38 0.1596 -1.32 0.1596 -1.76 0 -7.64 0.8002 -8.3402 -3.2598 -7.5602l-6.16 1.2602c-12.6 3.58 -9.4402 -1.7 -9.5402 12 0 0.76 0.0004 0.7 -5.1796 2 -1.1 0.26 -0.7202 0.5002 -1.1002 -7.7798 -0.22 -4.78 -0.44 -2.3602 -20.54 1.3198 -0.3428 0.0852 -0.6592 0.254 -0.9208 0.4914 -0.2618 0.2374 -0.4608 0.5358 -0.5792 0.8686l0 0.3202c0.36 4.84 0.64 5.48 -0.48 5.24 -1.545 -0.1962 -3.104 -0.2634 -4.66 -0.2002 -1.08 0 -1.1398 0 -1.2198 -1.16 -0.14 -2 0.4996 -0.62 -0.3004 -3.32 -0.28 -0.86 -1 -0.56 -2 -0.36 -23.54 4.92 -14.9796 3.32 -26.6596 3.16 -1.9232 -0.2804 -3.8772 -0.2804 -5.8002 0 -0.5 0.1 -0.86 1.04 1.58 1 1.38 0 13.86 1.12 13.9 1.12 -0.28 0 5.5998 0 22.4598 0.98 28.58 1.82 11.2 2.16 52 -5.36 1.04 -0.18 115.1596 -22.98 115.3796 -23.04 12.26 -2.5 10 -0.3602 15.06 -14.8002 1.44 -4.16 1.44 -5.0998 2.9 -5.1798 3.42 -0.44 5.06 -1.04 4.42 0.54l0.18 0.16Zm-54.54 23.6c-2.42 1.26 -5.04 1.12 -7.64 1.76 -1.694 0.406 -3.42 0.6736 -5.16 0.8 -0.54 0 -0.54 0 -0.38 -0.6 0.66 -2.32 0.34 -2.36 2 -2.48 0.02 -0.18 10.86 0.1 11 0.36l0.18 0.16Zm-23.16 3.82c-0.16 0.72 -0.32 0.84 -3.44 1.58 -2 0.44 -9.72 2.24 -11.72 2.44 -2.36 0.22 -5.2996 2.38 -4.6396 -0.16 2.1996 -8.26 1.8996 -8.32 3.8796 -8 1.42 0 14.82 -0.42 16.24 -0.34 1.42 0.08 0.38 0.32 -0.5 4.32l0.18 0.16Zm-30.3196 7.34c-3.8078 0.4668 -7.5818 1.175 -11.2998 2.12 -2.111 0.4678 -4.248 0.8084 -6.4 1.02 -6.62 1.4 -6.66 1.7 -6.66 0.98l0 -7.38c0 -2 -0.5998 -1.08 26.6802 -6.68 0.68 -0.14 0.7398 -0.16 0.4398 1.12 -2.2 8.42 -1.8398 8.62 -2.9398 8.66l0.1796 0.16Zm-33.6396 6.4c-16.54 3.54 -15.1802 3.1798 -15.2202 2.5798 -0.46 -9.36 -0.7002 -8.6398 0.9598 -8.8598 2.24 -0.3 14.58 -3.24 14.94 -2.8 0.2302 1.7994 0.2302 3.6206 0 5.42 -0.58 2.32 0.3802 3.24 -0.8598 3.5l0.1802 0.16Zm-24.1602 3.62c0.3 2.12 0 1.74 -4.44 2.48 -2.46 0 -0.18 0 -9.06 -0.44 -5.66 -0.22 -5.4 -0.12 -5.48 -0.98 -0.46 -5.14 -0.6998 -5.06 0.1802 -5.22 1.62 -0.26 15.3 -3.16 16.52 -3.46 2.2 -0.52 2 -0.72 2 4.2 -0.0564 1.0876 -0.0234 2.178 0.0996 3.26l0.1802 0.16Zm-28.46 0.76c0 0.6 -1.8598 0.22 -1.8598 0.4 -11.76 -1 -8.7 -0.2198 -10 -0.7198 3.2888 -0.9486 6.6272 -1.7164 10 -2.3002 1.56 -0.48 1.5796 -0.58 1.6796 2.46l0.1802 0.16Zm203.7994 -57.26c-0.8 2.2594 -2.1 4.3098 -3.8 6 -4.32 3.8 -14 0.76 -12.12 -10 1.4 -8 9.76 -13.7398 15.62 -4.5598 1.06 1.7 0.7 7.0198 0.12 8.3798l0.18 0.18Z" stroke-width="1"></path><path id="Vector_96" fill="#000000" d="M103.7128 238.522c0.48 2 -1.7998 2.12 -3.8398 1.88 -4.38 -0.54 -7.4802 0.62 -7.7002 -2.26 0 -0.4 -0.7598 -4 -1.8398 -17.46 -0.3 -3.52 3.7796 -1.56 9.6596 -2 1.04 0 2 0.88 2 1.18 -0.0176 2.28 0.2242 4.556 0.7202 6.78 0.44 1.86 0.32 9.04 1 11.88Zm-2.2802 0.54c0.84 0.14 0.7602 0.32 0.3802 -3.22 -0.2 -1.84 -0.0002 -1.48 -3.7202 -1.2s-4.66 0.22 -4.62 0.78c0.2 3.54 0.2602 3.36 1.1602 3.38l6.7998 0.26Zm-7.5 -5.6c7.8 -0.18 7.68 -0.7 7.62 -1.26 -0.36 -4.26 -0.1598 -3.82 -1.8198 -3.8 -6.28 0.84 -6.9004 0.16 -6.8204 1.56 0.24 3.88 0.2402 3.52 1.0202 3.5Zm-0.82 -5.84c9.76 -1.58 7.72 1.18 7.48 -6.82 0 -0.98 -0.4798 -0.86 -7.7998 -0.84 -1.24 0 -0.84 0 -0.62 2.26 0.52 5.44 0.32 5.5 0.98 5.4h-0.0402Z" stroke-width="1"></path><path id="Vector_97" fill="#000000" d="M97.9526 135.7426c0.0184 -0.0354 0.027 -0.0752 0.0244 -0.115 -0.0024 -0.0398 -0.0154 -0.0782 -0.038 -0.111 -0.0226 -0.033 -0.054 -0.059 -0.0904 -0.0754 -0.0362 -0.0166 -0.076 -0.0232 -0.1156 -0.0186 -1.24 0.26 -4.0002 0.58 -5.5402 1.04 -0.94 0.28 -1.3002 0.0002 -1.7002 -0.7998 -0.7996 -1.3326 -1.4694 -2.7394 -2 -4.2002 0 0 -0.1596 0.0002 -0.2796 -0.1398 -0.12 -0.14 -0.0004 0.98 -0.2204 1.74 -1.04 4.8 0.9804 3.36 -4.7796 6 -1.32 0.62 1.0796 0.8798 3.6996 1.6998 1.1 0.34 1.04 0.9602 -1 5.8202 -0.1 0.26 -0.1 0.24 0 0 0.2162 -0.0434 0.425 -0.1174 0.6202 -0.22 5.6 -4.44 5.3 -5.14 7.58 -3.46 3.14 2.3 2.9802 2.28 3.2002 2.18 -0.4202 -1.4072 -1.0258 -2.7524 -1.8002 -4 -2.24 -2.74 0.6198 -2.6202 2.4398 -5.3402Zm1.7804 -2.3c1 -0.28 1.3596 0.6602 0.6796 1.6802 -4.74 7.14 -4.68 2 -2 8 0.92 2 3.1804 5.22 0.9404 5.22 -0.98 0 -2.6404 -1.3202 -3.4004 -1.8802 -5.06 -3.7 -1.9996 -3.22 -9.7196 2.26 -2.8 2 -3.3802 0.9802 -2.6202 -0.8198 2.56 -6.16 2.6202 -5.8602 1.6602 -6.1202 -0.96 -0.26 -5.2002 -1.36 -5.2602 -2.28 -0.06 -0.92 0.58 -0.74 1.12 -1l3.2402 -1.56c1.76 -0.8 1.78 0.2402 2.46 -8.8398 0.1 -1.26 1.02 -1.04 1.46 0 4 8.88 2.2598 7.36 8.8198 6 0.56 -0.22 1.6002 -0.3802 2.6202 -0.6602Z" stroke-width="1"></path><path id="Vector_98" fill="#000000" d="M100.873 206.502c0.62 6.6 1.3598 7.04 -3.2802 6.8 -9.5 -0.5 -8.1198 0.58 -8.7598 -5.7 -0.6664 -5.222 -1.0538 -10.4756 -1.1602 -15.7392 0 -1.62 2.0002 -2 3.1202 -1.76 2.214 0.2912 4.4486 0.3918 6.6796 0.3 3.16 0.06 2.1404 2.84 3.4004 16.0992Zm-2.7002 5.56c0.88 0 1.68 0.16 1.48 -0.5 -0.4 -1.3 0.0002 -2.3 -0.3598 -3.4 -0.16 -0.54 -0.1802 -0.44 -3.7402 0.32 -6.34 1.32 -4.9998 0.86 -4.7998 2.7 0.08 0.56 -0.4202 0.22 7.4198 0.86v0.02Zm1 -6.44c-0.24 -4.78 0.28 -4.2 -2.48 -3.64 -7.36 1.46 -6.64 1.1 -6.58 2 0.3 3.78 0.0002 4 0.6802 4 9.04 -1.46 8.3598 -1.38 8.3598 -2.36h0.02Zm-8.9198 -4c8.58 -1.7192 8.5798 -1.44 8.4198 -2.1592 -0.74 -8.42 -0.32 -7.58 -2 -7.62 -7.42 -0.18 -7.52 -0.44 -7.6 0.32 0.0736 3.0502 0.3076 6.0942 0.7002 9.1192 0.1 0.62 0.48 0.32 0.48 0.4v-0.06Z" stroke-width="1"></path><path id="Vector_99" fill="#000000" d="M94.473 354.882c0.82 2.24 -0.9798 4.8 -2.3798 4.56 -0.6264 -0.104 -1.2022 -0.408 -1.6412 -0.868 -0.4388 -0.458 -0.7174 -1.046 -0.7938 -1.676 -0.0766 -0.632 0.0532 -1.27 0.3696 -1.82s0.802 -0.984 1.3852 -1.236c0.2662 -0.148 0.5606 -0.238 0.8638 -0.266 0.3032 -0.026 0.6086 0.01 0.897 0.108 0.2882 0.098 0.553 0.256 0.7768 0.462 0.2238 0.206 0.4016 0.458 0.5224 0.736Zm-0.9198 1.28c0 -3.28 -4.5198 -0.2 -2.1598 1.78 1.04 0.88 2.1598 -0.54 2.1598 -1.78Z" stroke-width="1"></path><path id="Vector_100" fill="#000000" d="M90.6732 261.862c0.2 2 -3.54 1.82 -5.52 1.38 -3 -0.68 -4.92 -1.32 -4.96 -4.68 0 -4 -2.36 -10.42 -1.58 -13.2 0.32 -1.12 7.8 -0.44 8 -0.42 3.4 0.4 2.54 2.36 4.06 16.92Zm-7.3998 -0.7c5.08 0.68 5.9998 1.34 5.7998 0.5 -0.46 -3.82 0.3402 -3.12 -6.2398 -3.16 -1.34 0 -1.36 0 -0.98 1.28 0.22 0.7 0.52 1.26 1.42 1.38Zm4.7396 -4.12c0.14 0 0.3404 -0.24 0.3404 -0.36 0 -4.3 0.88 -3.5 -6.96 -3.48 -0.94 0 -0.18 0.36 0 3.16 0 0.88 0.3798 0.68 6.3198 0.7 0.14 0 0.2398 0.02 0.2998 -0.02Zm-1.1796 -5.34c1.66 0 1.1996 0.1 0.5996 -5 0 -0.52 -0.1596 -0.48 -2.5596 -0.64 -7.66 -0.56 -4.5604 -0.8 -4.4404 4.7 0.04 1.28 0.7204 1.06 6.4004 0.94Z" stroke-width="1"></path><path id="Vector_101" fill="#000000" d="M87.7928 237.182c-0.0074 0.528 -0.1906 1.04 -0.52 1.452 -0.3296 0.412 -0.787 0.704 -1.3004 0.828 -0.8354 0.004 -1.6702 -0.044 -2.5 -0.14 -8.94 -0.54 -5.7798 -0.34 -7.7398 -9.7 -1 -4.66 -0.3598 -4.48 -0.8598 -6.58 -0.213 -0.936 -0.2872 -1.9 -0.2202 -2.86 0 -0.44 -0.44 -0.9 0 -1.3 2.26 -1.72 6.6198 -0.2 9.3798 -0.7 2.76 -0.5 2.0004 2.72 3.7604 19Zm-2 -3.12c0.44 -0.34 -0.1202 -0.78 -0.1202 -1.2 -0.0162 -0.876 -0.0832 -1.75 -0.2002 -2.62 0 -0.66 -0.3998 -0.14 -7.3598 0.48 -0.6 0 -0.8398 0 -0.2198 3.46 0.12 0.72 0.2396 0.56 1.6396 0.48 0.02 0.06 6.2404 -0.62 6.2804 -0.62l-0.02 0.02Zm-5.3004 3.52c5.82 0.74 6.1204 1.28 5.2804 -1.88 -4.6 0.5 -8.0004 0.14 -7.2404 1.24 0.32 0.44 1.18 0.54 1.98 0.64h-0.02Zm3.7202 -8.96c0.38 0 1.02 -0.22 1 -0.58 -0.015 -2.576 -0.2628 -5.146 -0.7402 -7.68 -0.14 -1.06 0.44 -0.84 -8 -0.84 -0.76 0 -0.32 0.76 0 5.04 0.68 5.72 -0.7398 4.86 7.7602 4.06h-0.02Z" stroke-width="1"></path><path id="Vector_102" fill="#000000" d="M85.952 146.6428c-0.1 0.26 -0.1 0.26 0 0Z" stroke-width="1"></path><path id="Vector_103" fill="#000000" d="M85.3528 209.282c0.64 1.14 -0.4404 3.66 -2.2604 3.22 -1.82 -0.44 -1.7798 0.12 -8.2998 -0.44 -0.64 0 -1.6802 -1.34 -1.7802 -2 0 -17.9992 -4.34 -21.2192 0.46 -21.2192 14 1.76 7.38 -2.6 11.46 17.9992 -0.0074 0.832 0.1352 1.66 0.4204 2.44Zm-1.8404 -0.28c-0.54 -4.3 -0.34 -4.38 -1.04 -4.24 -7.52 1.48 -8 1.22 -8 2 0.14 4 -0.1196 4 1.8404 3.86 0.84 -0.02 7.3196 -0.72 7.1996 -1.62Zm-0.7598 -6.46c-0.5482 -3.4074 -0.869 -6.8484 -0.96 -10.2994 0.34 -1.66 -1.08 -1.2998 -7.62 -1.8398 -1.76 0 -1.22 -0.88 -0.52 7.26 0.64 7.1792 0.3402 7.0792 1.1602 6.9592 0.44 -0.06 8.1998 -1.16 7.9398 -2.08Z" stroke-width="1"></path><path id="Vector_104" fill="#000000" d="M82.7932 111.5428c0.38 0.24 0 0.56 0 0.84 0 0.86 -2.8402 0.2 -4.1802 -1.54 -1.1818 -1.294 -2.7688 -2.1476 -4.5 -2.4202 -0.88 -0.44 -0.54 -1.6398 0.44 -1.4198 0.98 0.22 4 0.76 5.08 2.3 0.8 1.12 1.6802 1.28 3.1602 2.24Z" stroke-width="1"></path><path id="Vector_105" fill="#000000" d="M80.972 87.0028c1.4 0 0.68 1.3202 0.44 1.4002 -2.16 0.72 -2.2598 2.9398 -4.7998 2.9398 -0.4238 -0.0298 -0.849 0.0266 -1.2504 0.1658 -0.4014 0.1394 -0.7704 0.3588 -1.0846 0.6448 -0.314 0.2862 -0.567 0.6332 -0.743 1.0198 -0.1762 0.3866 -0.272 0.805 -0.2818 1.2298 -0.16 1.24 -1.22 1.1998 -1.46 0.2798 -0.0576 -0.601 0.0042 -1.2072 0.1826 -1.7838s0.47 -1.1122 0.857 -1.5754c0.387 -0.4632 0.8618 -0.845 1.3974 -1.1232 0.5356 -0.2784 1.1212 -0.4474 1.7226 -0.4976 2.36 0.02 2.64 -2.72 5.02 -2.7Z" stroke-width="1"></path><path id="Vector_106" fill="#000000" d="M72.1924 102.8028c-0.14 6.56 -8.5598 7.3398 -9.4598 2.3998 -1.3 -7 9.6198 -9.2798 9.4598 -2.3998Zm-7.16 3.8998c5.76 2.46 8.3798 -7.72 2.4198 -6.76 -4.04 0.64 -4.1998 6.1 -2.4198 6.76Z" stroke-width="1"></path><path id="Vector_107" fill="#000000" d="M71.3732 119.9028c0 0.38 0 1.86 -1 1.76 -1 -0.1 -0.5802 -2.0002 -0.7202 -2.9402 -0.3 -2 -3.4002 -5.72 -1.6602 -7.04 0.1028 -0.0772 0.2248 -0.1244 0.3526 -0.1368 0.1278 -0.0124 0.2564 0.0104 0.372 0.0662 0.1156 0.0556 0.2136 0.142 0.2832 0.2498 0.0698 0.1076 0.1088 0.2324 0.1124 0.3608 0.58 4.16 2.2602 2.8802 2.2602 7.6802Z" stroke-width="1"></path><path id="Vector_108" fill="#000000" d="M63.3736 93.1628c0.78 0.58 1.4598 2.8998 0.2998 3.1598 -0.74 0.18 -0.8002 -0.42 -1.2602 -1.46 -0.46 -1.04 -1.2398 -0.48 -1.2798 -2.52 0.52 -3.04 0.9398 -3.76 -0.2002 -4.82 -0.5534 -0.4324 -0.942 -1.041 -1.102 -1.7248 -0.1602 -0.684 -0.082 -1.402 0.222 -2.0352 0.32 -0.82 1.5204 0 1.3204 0.44 -0.86 2.1 2.5998 2.1198 1.8598 5.7198 -0.46 2.12 -0.5598 2.7404 0.1402 3.2404Z" stroke-width="1"></path><path id="Vector_109" fill="#000000" d="M60.5132 108.4826c0.82 -0.42 2.28 0.9202 -0.46 2.3002 -2.36 0.94 -2.1598 2.6198 -3.7998 4.9598 -0.1796 0.2784 -0.422 0.511 -0.7076 0.6788 -0.2856 0.1678 -0.6064 0.2662 -0.937 0.2876 -0.3304 0.0214 -0.6614 -0.035 -0.9662 -0.1646 -0.3048 -0.1296 -0.5752 -0.3288 -0.7892 -0.5818 -0.24 -0.44 0.2598 -0.9198 0.6798 -0.8398 1.7 0.32 1.9998 -1.12 3.3998 -4 0.48 -1.08 2.5402 -2.1002 3.5802 -2.6402Z" stroke-width="1"></path><path id="Vector_110" fill="#000000" d="M58.573 100.7626c1.52 0.46 2.32 0.5602 2.12 1.5602 -0.3 1.66 -3.16 -0.68 -6 -0.92 -0.9848 0.1954 -1.954 0.4626 -2.8998 0.7998 -0.4672 0.1772 -0.973 0.2262 -1.4654 0.1418 -0.4924 -0.0842 -0.9534 -0.2986 -1.335 -0.621 -0.3816 -0.3224 -0.6696 -0.7408 -0.835 -1.2122 -0.1652 -0.4714 -0.2016 -0.9784 -0.105 -1.4684 0 -0.22 0.7804 -1.2402 1.2204 -0.2802 0.22 0.5 0 1.0802 0.54 1.5402 0.98 1 2.3798 -0.0002 3.8798 -0.3602 1.74 -0.34 1.98 -0.1 4.88 0.82Z" stroke-width="1"></path><path id="Vector_111" fill="#000000" d="M325.154 277.382c-0.89 -6.398 -2.64 -12.648 -5.2 -18.58 -4.88 -11.24 -21.24 -5.14 -24.54 -2 -3.7 3.68 -3.84 9.88 -2.92 15.02 2 11.22 5.1 34.48 16.48 34.48 19.34 -1.54 19.44 -10.78 16.18 -28.92Zm-2.46 21.84c-2.84 3.7 -10 5.3 -14.14 5.3 -9.28 -0.72 -12.48 -23.84 -14.2 -33.02 -0.52 -2.84 -0.68 -9.08 1.58 -12.26 2.26 -3.18 12.64 -6.7 18.2 -4 5.16 2.42 8 16 8.96 21.5 1.26 6.58 3.58 17.3 -0.36 22.48h-0.04Z" stroke-width="1"></path><path id="Vector_112" fill="#000000" d="M310.394 260.562c-1.02 -0.956 -2.34 -1.528 -3.734 -1.616 -1.396 -0.088 -2.776 0.314 -3.906 1.136 -2 1.74 -1.84 3.18 -1.36 8 0.948 7.222 2.322 14.382 4.118 21.44 0.82 2.14 0.222 3.8 3.722 9.22 1.82 2.52 7.998 1.52 8.778 -3.38 0 -6.08 -3.698 -29.32 -7.618 -34.8Zm4.94 36.32c-1.3 1.44 -3.542 1.6 -3.882 1.06 -3.84 -6 -3.08 -7.08 -4 -9.52 -1.662 -6.448 -2.996 -12.976 -4 -19.56 -0.52 -5.12 -0.578 -6.12 0.942 -7.44 0.638 -0.446 1.404 -0.674 2.182 -0.65 0.78 0.026 1.53 0.302 2.138 0.79 3.86 5.3 8.1 33.14 6.62 35.32Z" stroke-width="1"></path></g></g></svg>